<?xml version="1.0" encoding="UTF-8" standalone="no"?>
<!DOCTYPE svg PUBLIC "-//W3C//DTD SVG 1.1//EN"
 "http://www.w3.org/Graphics/SVG/1.1/DTD/svg11.dtd">
<!-- Generated by graphviz version 12.2.1 (20241206.2353)
 -->
<!-- Title: main Pages: 1 -->
<svg width="513pt" height="433pt"
 viewBox="0.00 0.00 512.75 433.25" xmlns="http://www.w3.org/2000/svg" xmlns:xlink="http://www.w3.org/1999/xlink">
<g id="graph0" class="graph" transform="scale(1 1) rotate(0) translate(4 429.25)">
<title>main</title>
<!-- Node1 -->
<g id="Node000001" class="node">
<title>Node1</title>
<g id="a_Node000001"><a xlink:title="Main function.">
<polygon fill="#999999" stroke="#666666" points="37,-217.25 0,-217.25 0,-198 37,-198 37,-217.25"/>
<text text-anchor="middle" x="18.5" y="-203.75" font-family="Helvetica,sans-Serif" font-size="10.00">main</text>
</a>
</g>
</g>
<!-- Node2 -->
<g id="Node000002" class="node">
<title>Node2</title>
<g id="a_Node000002"><a xlink:href="../../dd/d2e/mcnaughton__yamada__thompson_8c.html#a13eda00dd5efd9440b0eaf5430b73e84" target="_top" xlink:title="Self&#45;test implementations.">
<polygon fill="white" stroke="#666666" points="105.5,-217.25 73,-217.25 73,-198 105.5,-198 105.5,-217.25"/>
<text text-anchor="middle" x="89.25" y="-203.75" font-family="Helvetica,sans-Serif" font-size="10.00">test</text>
</a>
</g>
</g>
<!-- Node1&#45;&gt;Node2 -->
<g id="edge1_Node000001_Node000002" class="edge">
<title>Node1&#45;&gt;Node2</title>
<g id="a_edge1_Node000001_Node000002"><a xlink:title=" ">
<path fill="none" stroke="#63b8ff" d="M37.2,-207.62C44.58,-207.62 53.31,-207.62 61.45,-207.62"/>
<polygon fill="#63b8ff" stroke="#63b8ff" points="61.2,-211.13 71.2,-207.63 61.2,-204.13 61.2,-211.13"/>
</a>
</g>
</g>
<!-- Node3 -->
<g id="Node000003" class="node">
<title>Node3</title>
<g id="a_Node000003"><a xlink:href="../../dd/d2e/mcnaughton__yamada__thompson_8c.html#a38faadeab39bb48716f1065bc05abec8" target="_top" xlink:title="Testing helper function.">
<polygon fill="white" stroke="#666666" points="202.5,-217.25 141.5,-217.25 141.5,-198 202.5,-198 202.5,-217.25"/>
<text text-anchor="middle" x="172" y="-203.75" font-family="Helvetica,sans-Serif" font-size="10.00">testHelper</text>
</a>
</g>
</g>
<!-- Node2&#45;&gt;Node3 -->
<g id="edge2_Node000002_Node000003" class="edge">
<title>Node2&#45;&gt;Node3</title>
<g id="a_edge2_Node000002_Node000003"><a xlink:title=" ">
<path fill="none" stroke="#63b8ff" d="M105.82,-207.62C112.69,-207.62 121.12,-207.62 129.61,-207.62"/>
<polygon fill="#63b8ff" stroke="#63b8ff" points="129.58,-211.13 139.58,-207.63 129.58,-204.13 129.58,-211.13"/>
</a>
</g>
</g>
<!-- Node4 -->
<g id="Node000004" class="node">
<title>Node4</title>
<g id="a_Node000004"><a xlink:href="../../dd/d2e/mcnaughton__yamada__thompson_8c.html#a496e9b4e45417ac56dac40bbbb769d7a" target="_top" xlink:title="recursively constructs a AST from a preprocessed regex string">
<polygon fill="white" stroke="#666666" points="308.12,-333.25 252.38,-333.25 252.38,-314 308.12,-314 308.12,-333.25"/>
<text text-anchor="middle" x="280.25" y="-319.75" font-family="Helvetica,sans-Serif" font-size="10.00">buildAST</text>
</a>
</g>
</g>
<!-- Node3&#45;&gt;Node4 -->
<g id="edge3_Node000003_Node000004" class="edge">
<title>Node3&#45;&gt;Node4</title>
<g id="a_edge3_Node000003_Node000004"><a xlink:title=" ">
<path fill="none" stroke="#63b8ff" d="M181.34,-217.33C193.65,-231.59 217.51,-258.97 238.5,-281.62 245.95,-289.66 254.35,-298.37 261.58,-305.77"/>
<polygon fill="#63b8ff" stroke="#63b8ff" points="258.84,-307.98 268.34,-312.66 263.83,-303.07 258.84,-307.98"/>
</a>
</g>
</g>
<!-- Node6 -->
<g id="Node000006" class="node">
<title>Node6</title>
<g id="a_Node000006"><a xlink:href="../../dd/d2e/mcnaughton__yamada__thompson_8c.html#a6a97ab2db6392f262b03370689872348" target="_top" xlink:title="recursively destroys a AST">
<polygon fill="white" stroke="#666666" points="429.5,-407.25 358,-407.25 358,-388 429.5,-388 429.5,-407.25"/>
<text text-anchor="middle" x="393.75" y="-393.75" font-family="Helvetica,sans-Serif" font-size="10.00">destroyNode</text>
</a>
</g>
</g>
<!-- Node3&#45;&gt;Node6 -->
<g id="edge15_Node000003_Node000006" class="edge">
<title>Node3&#45;&gt;Node6</title>
<g id="a_edge15_Node000003_Node000006"><a xlink:title=" ">
<path fill="none" stroke="#63b8ff" d="M174.2,-217.66C178.03,-245.09 192.57,-321.87 238.5,-360.62 268.44,-385.88 312.72,-394.5 346.17,-397.16"/>
<polygon fill="#63b8ff" stroke="#63b8ff" points="345.8,-400.65 356,-397.78 346.24,-393.66 345.8,-400.65"/>
</a>
</g>
</g>
<!-- Node10 -->
<g id="Node000010" class="node">
<title>Node10</title>
<g id="a_Node000010"><a xlink:href="../../dd/d2e/mcnaughton__yamada__thompson_8c.html#a684ed3494e22ee17d7b3e19a4d1fe977" target="_top" xlink:title="recursively destroys a NFA">
<polygon fill="white" stroke="#666666" points="314.5,-254.25 246,-254.25 246,-235 314.5,-235 314.5,-254.25"/>
<text text-anchor="middle" x="280.25" y="-240.75" font-family="Helvetica,sans-Serif" font-size="10.00">destroyNFA</text>
</a>
</g>
</g>
<!-- Node3&#45;&gt;Node10 -->
<g id="edge11_Node000003_Node000010" class="edge">
<title>Node3&#45;&gt;Node10</title>
<g id="a_edge11_Node000003_Node000010"><a xlink:title=" ">
<path fill="none" stroke="#63b8ff" d="M202.03,-217.74C213.63,-221.77 227.17,-226.49 239.64,-230.83"/>
<polygon fill="#63b8ff" stroke="#63b8ff" points="238.23,-234.05 248.82,-234.03 240.53,-227.44 238.23,-234.05"/>
</a>
</g>
</g>
<!-- Node13 -->
<g id="Node000013" class="node">
<title>Node13</title>
<g id="a_Node000013"><a xlink:href="../../dd/d2e/mcnaughton__yamada__thompson_8c.html#a2dabcd5c410a4b0cac1b4ab378c9dcdc" target="_top" xlink:title="determines whether the NFA is currently in its accepting state">
<polygon fill="white" stroke="#666666" points="313.75,-217.25 246.75,-217.25 246.75,-198 313.75,-198 313.75,-217.25"/>
<text text-anchor="middle" x="280.25" y="-203.75" font-family="Helvetica,sans-Serif" font-size="10.00">isAccepting</text>
</a>
</g>
</g>
<!-- Node3&#45;&gt;Node13 -->
<g id="edge16_Node000003_Node000013" class="edge">
<title>Node3&#45;&gt;Node13</title>
<g id="a_edge16_Node000003_Node000013"><a xlink:title=" ">
<path fill="none" stroke="#63b8ff" d="M202.88,-207.62C212.89,-207.62 224.26,-207.62 235.12,-207.62"/>
<polygon fill="#63b8ff" stroke="#63b8ff" points="235.1,-211.13 245.1,-207.63 235.1,-204.13 235.1,-211.13"/>
</a>
</g>
</g>
<!-- Node14 -->
<g id="Node000014" class="node">
<title>Node14</title>
<g id="a_Node000014"><a xlink:href="../../dd/d2e/mcnaughton__yamada__thompson_8c.html#a86e0f235783b005e4e6e951c9603bbe1" target="_top" xlink:title="performs postprocessing on a compiled NFA, add circular empty character transition rules where it&#39;s n...">
<polygon fill="white" stroke="#666666" points="322,-162.25 238.5,-162.25 238.5,-143 322,-143 322,-162.25"/>
<text text-anchor="middle" x="280.25" y="-148.75" font-family="Helvetica,sans-Serif" font-size="10.00">postProcessing</text>
</a>
</g>
</g>
<!-- Node3&#45;&gt;Node14 -->
<g id="edge17_Node000003_Node000014" class="edge">
<title>Node3&#45;&gt;Node14</title>
<g id="a_edge17_Node000003_Node000014"><a xlink:title=" ">
<path fill="none" stroke="#63b8ff" d="M192.49,-197.54C208.51,-189.24 231.48,-177.35 249.75,-167.89"/>
<polygon fill="#63b8ff" stroke="#63b8ff" points="251.27,-171.05 258.54,-163.34 248.05,-164.83 251.27,-171.05"/>
</a>
</g>
</g>
<!-- Node17 -->
<g id="Node000017" class="node">
<title>Node17</title>
<g id="a_Node000017"><a xlink:href="../../dd/d2e/mcnaughton__yamada__thompson_8c.html#ae9a5eac7c0d8ac478eb1b97529638fb6" target="_top" xlink:title="performs preprocessing on a regex string, making all implicit concatenations explicit">
<polygon fill="white" stroke="#666666" points="319.38,-120.25 241.12,-120.25 241.12,-101 319.38,-101 319.38,-120.25"/>
<text text-anchor="middle" x="280.25" y="-106.75" font-family="Helvetica,sans-Serif" font-size="10.00">preProcessing</text>
</a>
</g>
</g>
<!-- Node3&#45;&gt;Node17 -->
<g id="edge21_Node000003_Node000017" class="edge">
<title>Node3&#45;&gt;Node17</title>
<g id="a_edge21_Node000003_Node000017"><a xlink:title=" ">
<path fill="none" stroke="#63b8ff" d="M180.17,-197.57C191.36,-182.38 214.22,-153.26 238.5,-133.62 241.63,-131.1 245.07,-128.69 248.58,-126.44"/>
<polygon fill="#63b8ff" stroke="#63b8ff" points="250.36,-129.46 257.2,-121.37 246.8,-123.43 250.36,-129.46"/>
</a>
</g>
</g>
<!-- Node19 -->
<g id="Node000019" class="node">
<title>Node19</title>
<g id="a_Node000019"><a xlink:href="../../dd/d2e/mcnaughton__yamada__thompson_8c.html#aebe16fbf12c8ac089501ebcae6f0c050" target="_top" xlink:title="moves a NFA forward">
<polygon fill="white" stroke="#666666" points="301.75,-74.25 258.75,-74.25 258.75,-55 301.75,-55 301.75,-74.25"/>
<text text-anchor="middle" x="280.25" y="-60.75" font-family="Helvetica,sans-Serif" font-size="10.00">transit</text>
</a>
</g>
</g>
<!-- Node3&#45;&gt;Node19 -->
<g id="edge23_Node000003_Node000019" class="edge">
<title>Node3&#45;&gt;Node19</title>
<g id="a_edge23_Node000003_Node000019"><a xlink:title=" ">
<path fill="none" stroke="#63b8ff" d="M176.76,-197.62C185.18,-176.2 207.29,-125.14 238.5,-91.62 242.21,-87.64 246.62,-83.96 251.14,-80.68"/>
<polygon fill="#63b8ff" stroke="#63b8ff" points="252.74,-83.82 259.14,-75.37 248.87,-77.98 252.74,-83.82"/>
</a>
</g>
</g>
<!-- Node4&#45;&gt;Node4 -->
<g id="edge4_Node000004_Node000004" class="edge">
<title>Node4&#45;&gt;Node4</title>
<g id="a_edge4_Node000004_Node000004"><a xlink:title=" ">
<path fill="none" stroke="#63b8ff" d="M263.3,-333.54C255.57,-342.15 261.22,-351.25 280.25,-351.25 290.66,-351.25 297.06,-348.53 299.46,-344.65"/>
<polygon fill="#63b8ff" stroke="#63b8ff" points="302.93,-344.12 297.5,-335.02 296.07,-345.52 302.93,-344.12"/>
</a>
</g>
</g>
<!-- Node5 -->
<g id="Node000005" class="node">
<title>Node5</title>
<g id="a_Node000005"><a xlink:href="../../dd/d2e/mcnaughton__yamada__thompson_8c.html#a12df013d848665fdcdcb01870c322af6" target="_top" xlink:title="creates and initializes a AST node">
<polygon fill="white" stroke="#666666" points="426.88,-370.25 360.62,-370.25 360.62,-351 426.88,-351 426.88,-370.25"/>
<text text-anchor="middle" x="393.75" y="-356.75" font-family="Helvetica,sans-Serif" font-size="10.00">createNode</text>
</a>
</g>
</g>
<!-- Node4&#45;&gt;Node5 -->
<g id="edge5_Node000004_Node000005" class="edge">
<title>Node4&#45;&gt;Node5</title>
<g id="a_edge5_Node000004_Node000005"><a xlink:title=" ">
<path fill="none" stroke="#63b8ff" d="M308.53,-332.68C321.58,-337.01 337.47,-342.28 351.92,-347.08"/>
<polygon fill="#63b8ff" stroke="#63b8ff" points="350.59,-350.32 361.18,-350.15 352.79,-343.68 350.59,-350.32"/>
</a>
</g>
</g>
<!-- Node4&#45;&gt;Node6 -->
<g id="edge6_Node000004_Node000006" class="edge">
<title>Node4&#45;&gt;Node6</title>
<g id="a_edge6_Node000004_Node000006"><a xlink:title=" ">
<path fill="none" stroke="#63b8ff" d="M293.6,-333.55C308.44,-345.25 334.3,-364.96 358,-379.62 359.41,-380.5 360.86,-381.37 362.34,-382.22"/>
<polygon fill="#63b8ff" stroke="#63b8ff" points="360.47,-385.19 370.92,-386.94 363.84,-379.05 360.47,-385.19"/>
</a>
</g>
</g>
<!-- Node7 -->
<g id="Node000007" class="node">
<title>Node7</title>
<g id="a_Node000007"><a xlink:href="../../dd/d2e/mcnaughton__yamada__thompson_8c.html#aab463320a19667bd604db2405abefd55" target="_top" xlink:title="utility function to locate the first occurrence of a character in a string while respecting parenthes...">
<polygon fill="white" stroke="#666666" points="418.62,-333.25 368.88,-333.25 368.88,-314 418.62,-314 418.62,-333.25"/>
<text text-anchor="middle" x="393.75" y="-319.75" font-family="Helvetica,sans-Serif" font-size="10.00">indexOf</text>
</a>
</g>
</g>
<!-- Node4&#45;&gt;Node7 -->
<g id="edge8_Node000004_Node000007" class="edge">
<title>Node4&#45;&gt;Node7</title>
<g id="a_edge8_Node000004_Node000007"><a xlink:title=" ">
<path fill="none" stroke="#63b8ff" d="M308.53,-323.62C323.12,-323.62 341.26,-323.62 356.97,-323.62"/>
<polygon fill="#63b8ff" stroke="#63b8ff" points="356.9,-327.13 366.9,-323.63 356.9,-320.13 356.9,-327.13"/>
</a>
</g>
</g>
<!-- Node8 -->
<g id="Node000008" class="node">
<title>Node8</title>
<g id="a_Node000008"><a xlink:href="../../dd/d2e/mcnaughton__yamada__thompson_8c.html#a072d13f905ab9438d38d7415df222817" target="_top" xlink:title="utility function to create a subString">
<polygon fill="white" stroke="#666666" points="422.38,-296.25 365.12,-296.25 365.12,-277 422.38,-277 422.38,-296.25"/>
<text text-anchor="middle" x="393.75" y="-282.75" font-family="Helvetica,sans-Serif" font-size="10.00">subString</text>
</a>
</g>
</g>
<!-- Node4&#45;&gt;Node8 -->
<g id="edge9_Node000004_Node000008" class="edge">
<title>Node4&#45;&gt;Node8</title>
<g id="a_edge9_Node000004_Node000008"><a xlink:title=" ">
<path fill="none" stroke="#63b8ff" d="M308.53,-314.57C322.33,-309.99 339.31,-304.36 354.4,-299.35"/>
<polygon fill="#63b8ff" stroke="#63b8ff" points="355.16,-302.79 363.54,-296.32 352.95,-296.14 355.16,-302.79"/>
</a>
</g>
</g>
<!-- Node6&#45;&gt;Node6 -->
<g id="edge7_Node000006_Node000006" class="edge">
<title>Node6&#45;&gt;Node6</title>
<g id="a_edge7_Node000006_Node000006"><a xlink:title=" ">
<path fill="none" stroke="#63b8ff" d="M379.44,-407.54C372.92,-416.15 377.69,-425.25 393.75,-425.25 402.53,-425.25 407.94,-422.53 409.97,-418.65"/>
<polygon fill="#63b8ff" stroke="#63b8ff" points="413.46,-418.29 408.31,-409.03 406.56,-419.48 413.46,-418.29"/>
</a>
</g>
</g>
<!-- Node9 -->
<g id="Node000009" class="node">
<title>Node9</title>
<g id="a_Node000009"><a xlink:href="../../df/dfa/vector_8c.html#a1afee8aaf33d741df31a73048cff4473" target="_top" xlink:title="This function returns the pointer to the begining of the Vector.">
<polygon fill="white" stroke="#666666" points="504.75,-296.25 465.5,-296.25 465.5,-277 504.75,-277 504.75,-296.25"/>
<text text-anchor="middle" x="485.12" y="-282.75" font-family="Helvetica,sans-Serif" font-size="10.00">begin</text>
</a>
</g>
</g>
<!-- Node8&#45;&gt;Node9 -->
<g id="edge10_Node000008_Node000009" class="edge">
<title>Node8&#45;&gt;Node9</title>
<g id="a_edge10_Node000008_Node000009"><a xlink:title=" ">
<path fill="none" stroke="#63b8ff" d="M422.54,-286.62C432.48,-286.62 443.74,-286.62 453.88,-286.62"/>
<polygon fill="#63b8ff" stroke="#63b8ff" points="453.61,-290.13 463.61,-286.63 453.61,-283.13 453.61,-290.13"/>
</a>
</g>
</g>
<!-- Node10&#45;&gt;Node10 -->
<g id="edge12_Node000010_Node000010" class="edge">
<title>Node10&#45;&gt;Node10</title>
<g id="a_edge12_Node000010_Node000010"><a xlink:title=" ">
<path fill="none" stroke="#63b8ff" d="M263.3,-254.54C255.57,-263.15 261.22,-272.25 280.25,-272.25 290.66,-272.25 297.06,-269.53 299.46,-265.65"/>
<polygon fill="#63b8ff" stroke="#63b8ff" points="302.93,-265.12 297.5,-256.02 296.07,-266.52 302.93,-265.12"/>
</a>
</g>
</g>
<!-- Node11 -->
<g id="Node000011" class="node">
<title>Node11</title>
<g id="a_Node000011"><a xlink:href="../../dd/d2e/mcnaughton__yamada__thompson_8c.html#ade1398311f666988b895f41c3e36d70e" target="_top" xlink:title="destroys a transition rule object">
<polygon fill="white" stroke="#666666" points="428,-259.25 359.5,-259.25 359.5,-240 428,-240 428,-259.25"/>
<text text-anchor="middle" x="393.75" y="-245.75" font-family="Helvetica,sans-Serif" font-size="10.00">destroyRule</text>
</a>
</g>
</g>
<!-- Node10&#45;&gt;Node11 -->
<g id="edge13_Node000010_Node000011" class="edge">
<title>Node10&#45;&gt;Node11</title>
<g id="a_edge13_Node000010_Node000011"><a xlink:title=" ">
<path fill="none" stroke="#63b8ff" d="M314.7,-246.13C325.18,-246.59 336.91,-247.12 348.03,-247.62"/>
<polygon fill="#63b8ff" stroke="#63b8ff" points="347.66,-251.11 357.81,-248.06 347.97,-244.11 347.66,-251.11"/>
</a>
</g>
</g>
<!-- Node12 -->
<g id="Node000012" class="node">
<title>Node12</title>
<g id="a_Node000012"><a xlink:href="../../dd/d2e/mcnaughton__yamada__thompson_8c.html#a9a361f55b51ce6d677e907396fbc1652" target="_top" xlink:title="destroys a NFA state">
<polygon fill="white" stroke="#666666" points="429.5,-222.25 358,-222.25 358,-203 429.5,-203 429.5,-222.25"/>
<text text-anchor="middle" x="393.75" y="-208.75" font-family="Helvetica,sans-Serif" font-size="10.00">destroyState</text>
</a>
</g>
</g>
<!-- Node10&#45;&gt;Node12 -->
<g id="edge14_Node000010_Node000012" class="edge">
<title>Node10&#45;&gt;Node12</title>
<g id="a_edge14_Node000010_Node000012"><a xlink:title=" ">
<path fill="none" stroke="#63b8ff" d="M314.7,-235.02C324.8,-232.13 336.06,-228.9 346.81,-225.81"/>
<polygon fill="#63b8ff" stroke="#63b8ff" points="347.67,-229.2 356.32,-223.08 345.74,-222.48 347.67,-229.2"/>
</a>
</g>
</g>
<!-- Node14&#45;&gt;Node14 -->
<g id="edge20_Node000014_Node000014" class="edge">
<title>Node14&#45;&gt;Node14</title>
<g id="a_edge20_Node000014_Node000014"><a xlink:title=" ">
<path fill="none" stroke="#63b8ff" d="M263.3,-162.54C255.57,-171.15 261.22,-180.25 280.25,-180.25 290.66,-180.25 297.06,-177.53 299.46,-173.65"/>
<polygon fill="#63b8ff" stroke="#63b8ff" points="302.93,-173.12 297.5,-164.02 296.07,-174.52 302.93,-173.12"/>
</a>
</g>
</g>
<!-- Node15 -->
<g id="Node000015" class="node">
<title>Node15</title>
<g id="a_Node000015"><a xlink:href="../../dd/d2e/mcnaughton__yamada__thompson_8c.html#a4ed0049e15d45e0d75a991fbb6f8963c" target="_top" xlink:title="adds a transition rule to a NFA">
<polygon fill="white" stroke="#666666" points="419.75,-185.25 367.75,-185.25 367.75,-166 419.75,-166 419.75,-185.25"/>
<text text-anchor="middle" x="393.75" y="-171.75" font-family="Helvetica,sans-Serif" font-size="10.00">addRule</text>
</a>
</g>
</g>
<!-- Node14&#45;&gt;Node15 -->
<g id="edge18_Node000014_Node000015" class="edge">
<title>Node14&#45;&gt;Node15</title>
<g id="a_edge18_Node000014_Node000015"><a xlink:title=" ">
<path fill="none" stroke="#63b8ff" d="M322.45,-161.12C333.57,-163.42 345.51,-165.88 356.35,-168.12"/>
<polygon fill="#63b8ff" stroke="#63b8ff" points="355.59,-171.53 366.09,-170.13 357,-164.68 355.59,-171.53"/>
</a>
</g>
</g>
<!-- Node16 -->
<g id="Node000016" class="node">
<title>Node16</title>
<g id="a_Node000016"><a xlink:href="../../dd/d2e/mcnaughton__yamada__thompson_8c.html#a0b8d037bf2841dede90be41f5fe1ccdc" target="_top" xlink:title="creates and initializes a transition rule">
<polygon fill="white" stroke="#666666" points="425.38,-148.25 362.12,-148.25 362.12,-129 425.38,-129 425.38,-148.25"/>
<text text-anchor="middle" x="393.75" y="-134.75" font-family="Helvetica,sans-Serif" font-size="10.00">createRule</text>
</a>
</g>
</g>
<!-- Node14&#45;&gt;Node16 -->
<g id="edge19_Node000014_Node000016" class="edge">
<title>Node14&#45;&gt;Node16</title>
<g id="a_edge19_Node000014_Node000016"><a xlink:title=" ">
<path fill="none" stroke="#63b8ff" d="M322.45,-147.45C331.61,-146.3 341.33,-145.08 350.53,-143.93"/>
<polygon fill="#63b8ff" stroke="#63b8ff" points="350.84,-147.41 360.32,-142.7 349.97,-140.47 350.84,-147.41"/>
</a>
</g>
</g>
<!-- Node18 -->
<g id="Node000018" class="node">
<title>Node18</title>
<g id="a_Node000018"><a xlink:href="../../dd/d2e/mcnaughton__yamada__thompson_8c.html#a6eaf52853f2b39a1299cc16972a3298e" target="_top" xlink:title="helper function to determine whether a character should be considered a character literal">
<polygon fill="white" stroke="#666666" points="418.62,-111.25 368.88,-111.25 368.88,-92 418.62,-92 418.62,-111.25"/>
<text text-anchor="middle" x="393.75" y="-97.75" font-family="Helvetica,sans-Serif" font-size="10.00">isLiteral</text>
</a>
</g>
</g>
<!-- Node17&#45;&gt;Node18 -->
<g id="edge22_Node000017_Node000018" class="edge">
<title>Node17&#45;&gt;Node18</title>
<g id="a_edge22_Node000017_Node000018"><a xlink:title=" ">
<path fill="none" stroke="#63b8ff" d="M319.62,-107.53C331.81,-106.54 345.23,-105.46 357.21,-104.49"/>
<polygon fill="#63b8ff" stroke="#63b8ff" points="357.42,-107.99 367.11,-103.69 356.86,-101.01 357.42,-107.99"/>
</a>
</g>
</g>
<!-- Node20 -->
<g id="Node000020" class="node">
<title>Node20</title>
<g id="a_Node000020"><a xlink:href="../../dd/d2e/mcnaughton__yamada__thompson_8c.html#a709e32f5905536216abb03efb4f4db2b" target="_top" xlink:title="helper function to determine an element&#39;s presence in an array">
<polygon fill="white" stroke="#666666" points="420.12,-74.25 367.38,-74.25 367.38,-55 420.12,-55 420.12,-74.25"/>
<text text-anchor="middle" x="393.75" y="-60.75" font-family="Helvetica,sans-Serif" font-size="10.00">contains</text>
</a>
</g>
</g>
<!-- Node19&#45;&gt;Node20 -->
<g id="edge24_Node000019_Node000020" class="edge">
<title>Node19&#45;&gt;Node20</title>
<g id="a_edge24_Node000019_Node000020"><a xlink:title=" ">
<path fill="none" stroke="#63b8ff" d="M302.22,-64.62C317.26,-64.62 337.92,-64.62 355.71,-64.62"/>
<polygon fill="#63b8ff" stroke="#63b8ff" points="355.66,-68.13 365.66,-64.63 355.66,-61.13 355.66,-68.13"/>
</a>
</g>
</g>
<!-- Node21 -->
<g id="Node000021" class="node">
<title>Node21</title>
<g id="a_Node000021"><a xlink:href="../../dd/d2e/mcnaughton__yamada__thompson_8c.html#a34774f1859a742ea1c3eaf3f6726b66c" target="_top" xlink:title="helper function to manage empty character transitions">
<polygon fill="white" stroke="#666666" points="423.88,-19.25 363.62,-19.25 363.62,0 423.88,0 423.88,-19.25"/>
<text text-anchor="middle" x="393.75" y="-5.75" font-family="Helvetica,sans-Serif" font-size="10.00">findEmpty</text>
</a>
</g>
</g>
<!-- Node19&#45;&gt;Node21 -->
<g id="edge25_Node000019_Node000021" class="edge">
<title>Node19&#45;&gt;Node21</title>
<g id="a_edge25_Node000019_Node000021"><a xlink:title=" ">
<path fill="none" stroke="#63b8ff" d="M301.7,-54.54C318.68,-46.16 343.07,-34.13 362.33,-24.63"/>
<polygon fill="#63b8ff" stroke="#63b8ff" points="363.65,-27.88 371.07,-20.32 360.55,-21.6 363.65,-27.88"/>
</a>
</g>
</g>
<!-- Node21&#45;&gt;Node21 -->
<g id="edge26_Node000021_Node000021" class="edge">
<title>Node21&#45;&gt;Node21</title>
<g id="a_edge26_Node000021_Node000021"><a xlink:title=" ">
<path fill="none" stroke="#63b8ff" d="M379.44,-19.54C372.92,-28.15 377.69,-37.25 393.75,-37.25 402.53,-37.25 407.94,-34.53 409.97,-30.65"/>
<polygon fill="#63b8ff" stroke="#63b8ff" points="413.46,-30.29 408.31,-21.03 406.56,-31.48 413.46,-30.29"/>
</a>
</g>
</g>
</g>
</svg>
