<?xml version="1.0" encoding="UTF-8" standalone="no"?>
<!DOCTYPE svg PUBLIC "-//W3C//DTD SVG 1.1//EN"
 "http://www.w3.org/Graphics/SVG/1.1/DTD/svg11.dtd">
<!-- Generated by graphviz version 12.2.1 (20241206.2353)
 -->
<!-- Title: transit Pages: 1 -->
<svg width="147pt" height="82pt"
 viewBox="0.00 0.00 147.25 82.25" xmlns="http://www.w3.org/2000/svg" xmlns:xlink="http://www.w3.org/1999/xlink">

<svg id="main" version="1.1" xmlns="http://www.w3.org/2000/svg" xmlns:xlink="http://www.w3.org/1999/xlink" xml:space="preserve">

<style type="text/css"><![CDATA[
.node, .edge {opacity: 0.7;}
.node.selected, .edge.selected {opacity: 1;}
.edge:hover path { stroke: red; }
.edge:hover polygon { stroke: red; fill: red; }
]]></style>
<script type="application/ecmascript" xlink:href="../../svg.min.js"/>
<svg id="graph" class="graph">
<g id="graph0" class="graph" transform="scale(1 1) rotate(0) translate(4 78.25)">
<title>transit</title>
<!-- Node1 -->
<g id="Node000001" class="node">
<title>Node1</title>
<g id="a_Node000001"><a xlink:title="moves a NFA forward">
<polygon fill="#999999" stroke="#666666" points="43,-46.25 0,-46.25 0,-27 43,-27 43,-46.25"/>
<text text-anchor="middle" x="21.5" y="-32.75" font-family="Helvetica,sans-Serif" font-size="10.00">transit</text>
</a>
</g>
</g>
<!-- Node2 -->
<g id="Node000002" class="node">
<title>Node2</title>
<g id="a_Node000002"><a xlink:href="../../dd/d2e/mcnaughton__yamada__thompson_8c.html#a709e32f5905536216abb03efb4f4db2b" target="_top" xlink:title="helper function to determine an element&#39;s presence in an array">
<polygon fill="white" stroke="#666666" points="135.5,-74.25 82.75,-74.25 82.75,-55 135.5,-55 135.5,-74.25"/>
<text text-anchor="middle" x="109.12" y="-60.75" font-family="Helvetica,sans-Serif" font-size="10.00">contains</text>
</a>
</g>
</g>
<!-- Node1&#45;&gt;Node2 -->
<g id="edge1_Node000001_Node000002" class="edge">
<title>Node1&#45;&gt;Node2</title>
<g id="a_edge1_Node000001_Node000002"><a xlink:title=" ">
<path fill="none" stroke="#63b8ff" d="M43.23,-43.4C51.79,-46.2 61.97,-49.53 71.7,-52.71"/>
<polygon fill="#63b8ff" stroke="#63b8ff" points="70.35,-55.95 80.94,-55.74 72.52,-49.3 70.35,-55.95"/>
</a>
</g>
</g>
<!-- Node3 -->
<g id="Node000003" class="node">
<title>Node3</title>
<g id="a_Node000003"><a xlink:href="../../dd/d2e/mcnaughton__yamada__thompson_8c.html#a34774f1859a742ea1c3eaf3f6726b66c" target="_top" xlink:title="helper function to manage empty character transitions">
<polygon fill="white" stroke="#666666" points="139.25,-19.25 79,-19.25 79,0 139.25,0 139.25,-19.25"/>
<text text-anchor="middle" x="109.12" y="-5.75" font-family="Helvetica,sans-Serif" font-size="10.00">findEmpty</text>
</a>
</g>
</g>
<!-- Node1&#45;&gt;Node3 -->
<g id="edge2_Node000001_Node000003" class="edge">
<title>Node1&#45;&gt;Node3</title>
<g id="a_edge2_Node000001_Node000003"><a xlink:title=" ">
<path fill="none" stroke="#63b8ff" d="M43.23,-30.09C50.59,-27.77 59.16,-25.07 67.6,-22.4"/>
<polygon fill="#63b8ff" stroke="#63b8ff" points="68.6,-25.76 77.08,-19.41 66.49,-19.08 68.6,-25.76"/>
</a>
</g>
</g>
<!-- Node3&#45;&gt;Node3 -->
<g id="edge3_Node000003_Node000003" class="edge">
<title>Node3&#45;&gt;Node3</title>
<g id="a_edge3_Node000003_Node000003"><a xlink:title=" ">
<path fill="none" stroke="#63b8ff" d="M95.41,-19.54C89.15,-28.15 93.72,-37.25 109.12,-37.25 117.55,-37.25 122.73,-34.53 124.68,-30.65"/>
<polygon fill="#63b8ff" stroke="#63b8ff" points="128.17,-30.33 123.09,-21.03 121.27,-31.47 128.17,-30.33"/>
</a>
</g>
</g>
</g>
</svg>
</svg>

<style type='text/css'>
<![CDATA[
[data-mouse-over-selected='false'] { opacity: 0.7; }
[data-mouse-over-selected='true']  { opacity: 1.0; }
]]>
</style>
<script type="application/ecmascript"><![CDATA[
document.addEventListener('DOMContentLoaded', (event) => {
  highlightEdges();
  highlightAdjacentNodes();
});
]]></script>
</svg>
