<?xml version="1.0" encoding="UTF-8" standalone="no"?>
<!DOCTYPE svg PUBLIC "-//W3C//DTD SVG 1.1//EN"
 "http://www.w3.org/Graphics/SVG/1.1/DTD/svg11.dtd">
<!-- Generated by graphviz version 12.2.1 (20241206.2353)
 -->
<!-- Title: testHelper Pages: 1 -->
<svg width="371pt" height="433pt"
 viewBox="0.00 0.00 371.25 433.25" xmlns="http://www.w3.org/2000/svg" xmlns:xlink="http://www.w3.org/1999/xlink">

<svg id="main" version="1.1" xmlns="http://www.w3.org/2000/svg" xmlns:xlink="http://www.w3.org/1999/xlink" xml:space="preserve">

<style type="text/css"><![CDATA[
.node, .edge {opacity: 0.7;}
.node.selected, .edge.selected {opacity: 1;}
.edge:hover path { stroke: red; }
.edge:hover polygon { stroke: red; fill: red; }
]]></style>
<script type="application/ecmascript" xlink:href="../../svg.min.js"/>
<svg id="graph" class="graph">
<g id="graph0" class="graph" transform="scale(1 1) rotate(0) translate(4 429.25)">
<title>testHelper</title>
<!-- Node1 -->
<g id="Node000001" class="node">
<title>Node1</title>
<g id="a_Node000001"><a xlink:title="Testing helper function.">
<polygon fill="#999999" stroke="#666666" points="61,-217.25 0,-217.25 0,-198 61,-198 61,-217.25"/>
<text text-anchor="middle" x="30.5" y="-203.75" font-family="Helvetica,sans-Serif" font-size="10.00">testHelper</text>
</a>
</g>
</g>
<!-- Node2 -->
<g id="Node000002" class="node">
<title>Node2</title>
<g id="a_Node000002"><a xlink:href="../../dd/d2e/mcnaughton__yamada__thompson_8c.html#a496e9b4e45417ac56dac40bbbb769d7a" target="_top" xlink:title="recursively constructs a AST from a preprocessed regex string">
<polygon fill="white" stroke="#666666" points="166.62,-333.25 110.88,-333.25 110.88,-314 166.62,-314 166.62,-333.25"/>
<text text-anchor="middle" x="138.75" y="-319.75" font-family="Helvetica,sans-Serif" font-size="10.00">buildAST</text>
</a>
</g>
</g>
<!-- Node1&#45;&gt;Node2 -->
<g id="edge1_Node000001_Node000002" class="edge">
<title>Node1&#45;&gt;Node2</title>
<g id="a_edge1_Node000001_Node000002"><a xlink:title=" ">
<path fill="none" stroke="#63b8ff" d="M39.84,-217.33C52.15,-231.59 76.01,-258.97 97,-281.62 104.45,-289.66 112.85,-298.37 120.08,-305.77"/>
<polygon fill="#63b8ff" stroke="#63b8ff" points="117.34,-307.98 126.84,-312.66 122.33,-303.07 117.34,-307.98"/>
</a>
</g>
</g>
<!-- Node4 -->
<g id="Node000004" class="node">
<title>Node4</title>
<g id="a_Node000004"><a xlink:href="../../dd/d2e/mcnaughton__yamada__thompson_8c.html#a6a97ab2db6392f262b03370689872348" target="_top" xlink:title="recursively destroys a AST">
<polygon fill="white" stroke="#666666" points="288,-407.25 216.5,-407.25 216.5,-388 288,-388 288,-407.25"/>
<text text-anchor="middle" x="252.25" y="-393.75" font-family="Helvetica,sans-Serif" font-size="10.00">destroyNode</text>
</a>
</g>
</g>
<!-- Node1&#45;&gt;Node4 -->
<g id="edge13_Node000001_Node000004" class="edge">
<title>Node1&#45;&gt;Node4</title>
<g id="a_edge13_Node000001_Node000004"><a xlink:title=" ">
<path fill="none" stroke="#63b8ff" d="M32.7,-217.66C36.53,-245.09 51.07,-321.87 97,-360.62 126.94,-385.88 171.22,-394.5 204.67,-397.16"/>
<polygon fill="#63b8ff" stroke="#63b8ff" points="204.3,-400.65 214.5,-397.78 204.74,-393.66 204.3,-400.65"/>
</a>
</g>
</g>
<!-- Node8 -->
<g id="Node000008" class="node">
<title>Node8</title>
<g id="a_Node000008"><a xlink:href="../../dd/d2e/mcnaughton__yamada__thompson_8c.html#a684ed3494e22ee17d7b3e19a4d1fe977" target="_top" xlink:title="recursively destroys a NFA">
<polygon fill="white" stroke="#666666" points="173,-254.25 104.5,-254.25 104.5,-235 173,-235 173,-254.25"/>
<text text-anchor="middle" x="138.75" y="-240.75" font-family="Helvetica,sans-Serif" font-size="10.00">destroyNFA</text>
</a>
</g>
</g>
<!-- Node1&#45;&gt;Node8 -->
<g id="edge9_Node000001_Node000008" class="edge">
<title>Node1&#45;&gt;Node8</title>
<g id="a_edge9_Node000001_Node000008"><a xlink:title=" ">
<path fill="none" stroke="#63b8ff" d="M60.53,-217.74C72.13,-221.77 85.67,-226.49 98.14,-230.83"/>
<polygon fill="#63b8ff" stroke="#63b8ff" points="96.73,-234.05 107.32,-234.03 99.03,-227.44 96.73,-234.05"/>
</a>
</g>
</g>
<!-- Node11 -->
<g id="Node000011" class="node">
<title>Node11</title>
<g id="a_Node000011"><a xlink:href="../../dd/d2e/mcnaughton__yamada__thompson_8c.html#a2dabcd5c410a4b0cac1b4ab378c9dcdc" target="_top" xlink:title="determines whether the NFA is currently in its accepting state">
<polygon fill="white" stroke="#666666" points="172.25,-217.25 105.25,-217.25 105.25,-198 172.25,-198 172.25,-217.25"/>
<text text-anchor="middle" x="138.75" y="-203.75" font-family="Helvetica,sans-Serif" font-size="10.00">isAccepting</text>
</a>
</g>
</g>
<!-- Node1&#45;&gt;Node11 -->
<g id="edge14_Node000001_Node000011" class="edge">
<title>Node1&#45;&gt;Node11</title>
<g id="a_edge14_Node000001_Node000011"><a xlink:title=" ">
<path fill="none" stroke="#63b8ff" d="M61.38,-207.62C71.39,-207.62 82.76,-207.62 93.62,-207.62"/>
<polygon fill="#63b8ff" stroke="#63b8ff" points="93.6,-211.13 103.6,-207.63 93.6,-204.13 93.6,-211.13"/>
</a>
</g>
</g>
<!-- Node12 -->
<g id="Node000012" class="node">
<title>Node12</title>
<g id="a_Node000012"><a xlink:href="../../dd/d2e/mcnaughton__yamada__thompson_8c.html#a86e0f235783b005e4e6e951c9603bbe1" target="_top" xlink:title="performs postprocessing on a compiled NFA, add circular empty character transition rules where it&#39;s n...">
<polygon fill="white" stroke="#666666" points="180.5,-162.25 97,-162.25 97,-143 180.5,-143 180.5,-162.25"/>
<text text-anchor="middle" x="138.75" y="-148.75" font-family="Helvetica,sans-Serif" font-size="10.00">postProcessing</text>
</a>
</g>
</g>
<!-- Node1&#45;&gt;Node12 -->
<g id="edge15_Node000001_Node000012" class="edge">
<title>Node1&#45;&gt;Node12</title>
<g id="a_edge15_Node000001_Node000012"><a xlink:title=" ">
<path fill="none" stroke="#63b8ff" d="M50.99,-197.54C67.01,-189.24 89.98,-177.35 108.25,-167.89"/>
<polygon fill="#63b8ff" stroke="#63b8ff" points="109.77,-171.05 117.04,-163.34 106.55,-164.83 109.77,-171.05"/>
</a>
</g>
</g>
<!-- Node15 -->
<g id="Node000015" class="node">
<title>Node15</title>
<g id="a_Node000015"><a xlink:href="../../dd/d2e/mcnaughton__yamada__thompson_8c.html#ae9a5eac7c0d8ac478eb1b97529638fb6" target="_top" xlink:title="performs preprocessing on a regex string, making all implicit concatenations explicit">
<polygon fill="white" stroke="#666666" points="177.88,-120.25 99.62,-120.25 99.62,-101 177.88,-101 177.88,-120.25"/>
<text text-anchor="middle" x="138.75" y="-106.75" font-family="Helvetica,sans-Serif" font-size="10.00">preProcessing</text>
</a>
</g>
</g>
<!-- Node1&#45;&gt;Node15 -->
<g id="edge19_Node000001_Node000015" class="edge">
<title>Node1&#45;&gt;Node15</title>
<g id="a_edge19_Node000001_Node000015"><a xlink:title=" ">
<path fill="none" stroke="#63b8ff" d="M38.67,-197.57C49.86,-182.38 72.72,-153.26 97,-133.62 100.13,-131.1 103.57,-128.69 107.08,-126.44"/>
<polygon fill="#63b8ff" stroke="#63b8ff" points="108.86,-129.46 115.7,-121.37 105.3,-123.43 108.86,-129.46"/>
</a>
</g>
</g>
<!-- Node17 -->
<g id="Node000017" class="node">
<title>Node17</title>
<g id="a_Node000017"><a xlink:href="../../dd/d2e/mcnaughton__yamada__thompson_8c.html#aebe16fbf12c8ac089501ebcae6f0c050" target="_top" xlink:title="moves a NFA forward">
<polygon fill="white" stroke="#666666" points="160.25,-74.25 117.25,-74.25 117.25,-55 160.25,-55 160.25,-74.25"/>
<text text-anchor="middle" x="138.75" y="-60.75" font-family="Helvetica,sans-Serif" font-size="10.00">transit</text>
</a>
</g>
</g>
<!-- Node1&#45;&gt;Node17 -->
<g id="edge21_Node000001_Node000017" class="edge">
<title>Node1&#45;&gt;Node17</title>
<g id="a_edge21_Node000001_Node000017"><a xlink:title=" ">
<path fill="none" stroke="#63b8ff" d="M35.26,-197.62C43.68,-176.2 65.79,-125.14 97,-91.62 100.71,-87.64 105.12,-83.96 109.64,-80.68"/>
<polygon fill="#63b8ff" stroke="#63b8ff" points="111.24,-83.82 117.64,-75.37 107.37,-77.98 111.24,-83.82"/>
</a>
</g>
</g>
<!-- Node2&#45;&gt;Node2 -->
<g id="edge2_Node000002_Node000002" class="edge">
<title>Node2&#45;&gt;Node2</title>
<g id="a_edge2_Node000002_Node000002"><a xlink:title=" ">
<path fill="none" stroke="#63b8ff" d="M121.8,-333.54C114.07,-342.15 119.72,-351.25 138.75,-351.25 149.16,-351.25 155.56,-348.53 157.96,-344.65"/>
<polygon fill="#63b8ff" stroke="#63b8ff" points="161.43,-344.12 156,-335.02 154.57,-345.52 161.43,-344.12"/>
</a>
</g>
</g>
<!-- Node3 -->
<g id="Node000003" class="node">
<title>Node3</title>
<g id="a_Node000003"><a xlink:href="../../dd/d2e/mcnaughton__yamada__thompson_8c.html#a12df013d848665fdcdcb01870c322af6" target="_top" xlink:title="creates and initializes a AST node">
<polygon fill="white" stroke="#666666" points="285.38,-370.25 219.12,-370.25 219.12,-351 285.38,-351 285.38,-370.25"/>
<text text-anchor="middle" x="252.25" y="-356.75" font-family="Helvetica,sans-Serif" font-size="10.00">createNode</text>
</a>
</g>
</g>
<!-- Node2&#45;&gt;Node3 -->
<g id="edge3_Node000002_Node000003" class="edge">
<title>Node2&#45;&gt;Node3</title>
<g id="a_edge3_Node000002_Node000003"><a xlink:title=" ">
<path fill="none" stroke="#63b8ff" d="M167.03,-332.68C180.08,-337.01 195.97,-342.28 210.42,-347.08"/>
<polygon fill="#63b8ff" stroke="#63b8ff" points="209.09,-350.32 219.68,-350.15 211.29,-343.68 209.09,-350.32"/>
</a>
</g>
</g>
<!-- Node2&#45;&gt;Node4 -->
<g id="edge4_Node000002_Node000004" class="edge">
<title>Node2&#45;&gt;Node4</title>
<g id="a_edge4_Node000002_Node000004"><a xlink:title=" ">
<path fill="none" stroke="#63b8ff" d="M152.1,-333.55C166.94,-345.25 192.8,-364.96 216.5,-379.62 217.91,-380.5 219.36,-381.37 220.84,-382.22"/>
<polygon fill="#63b8ff" stroke="#63b8ff" points="218.97,-385.19 229.42,-386.94 222.34,-379.05 218.97,-385.19"/>
</a>
</g>
</g>
<!-- Node5 -->
<g id="Node000005" class="node">
<title>Node5</title>
<g id="a_Node000005"><a xlink:href="../../dd/d2e/mcnaughton__yamada__thompson_8c.html#aab463320a19667bd604db2405abefd55" target="_top" xlink:title="utility function to locate the first occurrence of a character in a string while respecting parenthes...">
<polygon fill="white" stroke="#666666" points="277.12,-333.25 227.38,-333.25 227.38,-314 277.12,-314 277.12,-333.25"/>
<text text-anchor="middle" x="252.25" y="-319.75" font-family="Helvetica,sans-Serif" font-size="10.00">indexOf</text>
</a>
</g>
</g>
<!-- Node2&#45;&gt;Node5 -->
<g id="edge6_Node000002_Node000005" class="edge">
<title>Node2&#45;&gt;Node5</title>
<g id="a_edge6_Node000002_Node000005"><a xlink:title=" ">
<path fill="none" stroke="#63b8ff" d="M167.03,-323.62C181.62,-323.62 199.76,-323.62 215.47,-323.62"/>
<polygon fill="#63b8ff" stroke="#63b8ff" points="215.4,-327.13 225.4,-323.63 215.4,-320.13 215.4,-327.13"/>
</a>
</g>
</g>
<!-- Node6 -->
<g id="Node000006" class="node">
<title>Node6</title>
<g id="a_Node000006"><a xlink:href="../../dd/d2e/mcnaughton__yamada__thompson_8c.html#a072d13f905ab9438d38d7415df222817" target="_top" xlink:title="utility function to create a subString">
<polygon fill="white" stroke="#666666" points="280.88,-296.25 223.62,-296.25 223.62,-277 280.88,-277 280.88,-296.25"/>
<text text-anchor="middle" x="252.25" y="-282.75" font-family="Helvetica,sans-Serif" font-size="10.00">subString</text>
</a>
</g>
</g>
<!-- Node2&#45;&gt;Node6 -->
<g id="edge7_Node000002_Node000006" class="edge">
<title>Node2&#45;&gt;Node6</title>
<g id="a_edge7_Node000002_Node000006"><a xlink:title=" ">
<path fill="none" stroke="#63b8ff" d="M167.03,-314.57C180.83,-309.99 197.81,-304.36 212.9,-299.35"/>
<polygon fill="#63b8ff" stroke="#63b8ff" points="213.66,-302.79 222.04,-296.32 211.45,-296.14 213.66,-302.79"/>
</a>
</g>
</g>
<!-- Node4&#45;&gt;Node4 -->
<g id="edge5_Node000004_Node000004" class="edge">
<title>Node4&#45;&gt;Node4</title>
<g id="a_edge5_Node000004_Node000004"><a xlink:title=" ">
<path fill="none" stroke="#63b8ff" d="M237.94,-407.54C231.42,-416.15 236.19,-425.25 252.25,-425.25 261.03,-425.25 266.44,-422.53 268.47,-418.65"/>
<polygon fill="#63b8ff" stroke="#63b8ff" points="271.96,-418.29 266.81,-409.03 265.06,-419.48 271.96,-418.29"/>
</a>
</g>
</g>
<!-- Node7 -->
<g id="Node000007" class="node">
<title>Node7</title>
<g id="a_Node000007"><a xlink:href="../../df/dfa/vector_8c.html#a1afee8aaf33d741df31a73048cff4473" target="_top" xlink:title="This function returns the pointer to the begining of the Vector.">
<polygon fill="white" stroke="#666666" points="363.25,-296.25 324,-296.25 324,-277 363.25,-277 363.25,-296.25"/>
<text text-anchor="middle" x="343.62" y="-282.75" font-family="Helvetica,sans-Serif" font-size="10.00">begin</text>
</a>
</g>
</g>
<!-- Node6&#45;&gt;Node7 -->
<g id="edge8_Node000006_Node000007" class="edge">
<title>Node6&#45;&gt;Node7</title>
<g id="a_edge8_Node000006_Node000007"><a xlink:title=" ">
<path fill="none" stroke="#63b8ff" d="M281.04,-286.62C290.98,-286.62 302.24,-286.62 312.38,-286.62"/>
<polygon fill="#63b8ff" stroke="#63b8ff" points="312.11,-290.13 322.11,-286.63 312.11,-283.13 312.11,-290.13"/>
</a>
</g>
</g>
<!-- Node8&#45;&gt;Node8 -->
<g id="edge10_Node000008_Node000008" class="edge">
<title>Node8&#45;&gt;Node8</title>
<g id="a_edge10_Node000008_Node000008"><a xlink:title=" ">
<path fill="none" stroke="#63b8ff" d="M121.8,-254.54C114.07,-263.15 119.72,-272.25 138.75,-272.25 149.16,-272.25 155.56,-269.53 157.96,-265.65"/>
<polygon fill="#63b8ff" stroke="#63b8ff" points="161.43,-265.12 156,-256.02 154.57,-266.52 161.43,-265.12"/>
</a>
</g>
</g>
<!-- Node9 -->
<g id="Node000009" class="node">
<title>Node9</title>
<g id="a_Node000009"><a xlink:href="../../dd/d2e/mcnaughton__yamada__thompson_8c.html#ade1398311f666988b895f41c3e36d70e" target="_top" xlink:title="destroys a transition rule object">
<polygon fill="white" stroke="#666666" points="286.5,-259.25 218,-259.25 218,-240 286.5,-240 286.5,-259.25"/>
<text text-anchor="middle" x="252.25" y="-245.75" font-family="Helvetica,sans-Serif" font-size="10.00">destroyRule</text>
</a>
</g>
</g>
<!-- Node8&#45;&gt;Node9 -->
<g id="edge11_Node000008_Node000009" class="edge">
<title>Node8&#45;&gt;Node9</title>
<g id="a_edge11_Node000008_Node000009"><a xlink:title=" ">
<path fill="none" stroke="#63b8ff" d="M173.2,-246.13C183.68,-246.59 195.41,-247.12 206.53,-247.62"/>
<polygon fill="#63b8ff" stroke="#63b8ff" points="206.16,-251.11 216.31,-248.06 206.47,-244.11 206.16,-251.11"/>
</a>
</g>
</g>
<!-- Node10 -->
<g id="Node000010" class="node">
<title>Node10</title>
<g id="a_Node000010"><a xlink:href="../../dd/d2e/mcnaughton__yamada__thompson_8c.html#a9a361f55b51ce6d677e907396fbc1652" target="_top" xlink:title="destroys a NFA state">
<polygon fill="white" stroke="#666666" points="288,-222.25 216.5,-222.25 216.5,-203 288,-203 288,-222.25"/>
<text text-anchor="middle" x="252.25" y="-208.75" font-family="Helvetica,sans-Serif" font-size="10.00">destroyState</text>
</a>
</g>
</g>
<!-- Node8&#45;&gt;Node10 -->
<g id="edge12_Node000008_Node000010" class="edge">
<title>Node8&#45;&gt;Node10</title>
<g id="a_edge12_Node000008_Node000010"><a xlink:title=" ">
<path fill="none" stroke="#63b8ff" d="M173.2,-235.02C183.3,-232.13 194.56,-228.9 205.31,-225.81"/>
<polygon fill="#63b8ff" stroke="#63b8ff" points="206.17,-229.2 214.82,-223.08 204.24,-222.48 206.17,-229.2"/>
</a>
</g>
</g>
<!-- Node12&#45;&gt;Node12 -->
<g id="edge18_Node000012_Node000012" class="edge">
<title>Node12&#45;&gt;Node12</title>
<g id="a_edge18_Node000012_Node000012"><a xlink:title=" ">
<path fill="none" stroke="#63b8ff" d="M121.8,-162.54C114.07,-171.15 119.72,-180.25 138.75,-180.25 149.16,-180.25 155.56,-177.53 157.96,-173.65"/>
<polygon fill="#63b8ff" stroke="#63b8ff" points="161.43,-173.12 156,-164.02 154.57,-174.52 161.43,-173.12"/>
</a>
</g>
</g>
<!-- Node13 -->
<g id="Node000013" class="node">
<title>Node13</title>
<g id="a_Node000013"><a xlink:href="../../dd/d2e/mcnaughton__yamada__thompson_8c.html#a4ed0049e15d45e0d75a991fbb6f8963c" target="_top" xlink:title="adds a transition rule to a NFA">
<polygon fill="white" stroke="#666666" points="278.25,-185.25 226.25,-185.25 226.25,-166 278.25,-166 278.25,-185.25"/>
<text text-anchor="middle" x="252.25" y="-171.75" font-family="Helvetica,sans-Serif" font-size="10.00">addRule</text>
</a>
</g>
</g>
<!-- Node12&#45;&gt;Node13 -->
<g id="edge16_Node000012_Node000013" class="edge">
<title>Node12&#45;&gt;Node13</title>
<g id="a_edge16_Node000012_Node000013"><a xlink:title=" ">
<path fill="none" stroke="#63b8ff" d="M180.95,-161.12C192.07,-163.42 204.01,-165.88 214.85,-168.12"/>
<polygon fill="#63b8ff" stroke="#63b8ff" points="214.09,-171.53 224.59,-170.13 215.5,-164.68 214.09,-171.53"/>
</a>
</g>
</g>
<!-- Node14 -->
<g id="Node000014" class="node">
<title>Node14</title>
<g id="a_Node000014"><a xlink:href="../../dd/d2e/mcnaughton__yamada__thompson_8c.html#a0b8d037bf2841dede90be41f5fe1ccdc" target="_top" xlink:title="creates and initializes a transition rule">
<polygon fill="white" stroke="#666666" points="283.88,-148.25 220.62,-148.25 220.62,-129 283.88,-129 283.88,-148.25"/>
<text text-anchor="middle" x="252.25" y="-134.75" font-family="Helvetica,sans-Serif" font-size="10.00">createRule</text>
</a>
</g>
</g>
<!-- Node12&#45;&gt;Node14 -->
<g id="edge17_Node000012_Node000014" class="edge">
<title>Node12&#45;&gt;Node14</title>
<g id="a_edge17_Node000012_Node000014"><a xlink:title=" ">
<path fill="none" stroke="#63b8ff" d="M180.95,-147.45C190.11,-146.3 199.83,-145.08 209.03,-143.93"/>
<polygon fill="#63b8ff" stroke="#63b8ff" points="209.34,-147.41 218.82,-142.7 208.47,-140.47 209.34,-147.41"/>
</a>
</g>
</g>
<!-- Node16 -->
<g id="Node000016" class="node">
<title>Node16</title>
<g id="a_Node000016"><a xlink:href="../../dd/d2e/mcnaughton__yamada__thompson_8c.html#a6eaf52853f2b39a1299cc16972a3298e" target="_top" xlink:title="helper function to determine whether a character should be considered a character literal">
<polygon fill="white" stroke="#666666" points="277.12,-111.25 227.38,-111.25 227.38,-92 277.12,-92 277.12,-111.25"/>
<text text-anchor="middle" x="252.25" y="-97.75" font-family="Helvetica,sans-Serif" font-size="10.00">isLiteral</text>
</a>
</g>
</g>
<!-- Node15&#45;&gt;Node16 -->
<g id="edge20_Node000015_Node000016" class="edge">
<title>Node15&#45;&gt;Node16</title>
<g id="a_edge20_Node000015_Node000016"><a xlink:title=" ">
<path fill="none" stroke="#63b8ff" d="M178.12,-107.53C190.31,-106.54 203.73,-105.46 215.71,-104.49"/>
<polygon fill="#63b8ff" stroke="#63b8ff" points="215.92,-107.99 225.61,-103.69 215.36,-101.01 215.92,-107.99"/>
</a>
</g>
</g>
<!-- Node18 -->
<g id="Node000018" class="node">
<title>Node18</title>
<g id="a_Node000018"><a xlink:href="../../dd/d2e/mcnaughton__yamada__thompson_8c.html#a709e32f5905536216abb03efb4f4db2b" target="_top" xlink:title="helper function to determine an element&#39;s presence in an array">
<polygon fill="white" stroke="#666666" points="278.62,-74.25 225.88,-74.25 225.88,-55 278.62,-55 278.62,-74.25"/>
<text text-anchor="middle" x="252.25" y="-60.75" font-family="Helvetica,sans-Serif" font-size="10.00">contains</text>
</a>
</g>
</g>
<!-- Node17&#45;&gt;Node18 -->
<g id="edge22_Node000017_Node000018" class="edge">
<title>Node17&#45;&gt;Node18</title>
<g id="a_edge22_Node000017_Node000018"><a xlink:title=" ">
<path fill="none" stroke="#63b8ff" d="M160.72,-64.62C175.76,-64.62 196.42,-64.62 214.21,-64.62"/>
<polygon fill="#63b8ff" stroke="#63b8ff" points="214.16,-68.13 224.16,-64.63 214.16,-61.13 214.16,-68.13"/>
</a>
</g>
</g>
<!-- Node19 -->
<g id="Node000019" class="node">
<title>Node19</title>
<g id="a_Node000019"><a xlink:href="../../dd/d2e/mcnaughton__yamada__thompson_8c.html#a34774f1859a742ea1c3eaf3f6726b66c" target="_top" xlink:title="helper function to manage empty character transitions">
<polygon fill="white" stroke="#666666" points="282.38,-19.25 222.12,-19.25 222.12,0 282.38,0 282.38,-19.25"/>
<text text-anchor="middle" x="252.25" y="-5.75" font-family="Helvetica,sans-Serif" font-size="10.00">findEmpty</text>
</a>
</g>
</g>
<!-- Node17&#45;&gt;Node19 -->
<g id="edge23_Node000017_Node000019" class="edge">
<title>Node17&#45;&gt;Node19</title>
<g id="a_edge23_Node000017_Node000019"><a xlink:title=" ">
<path fill="none" stroke="#63b8ff" d="M160.2,-54.54C177.18,-46.16 201.57,-34.13 220.83,-24.63"/>
<polygon fill="#63b8ff" stroke="#63b8ff" points="222.15,-27.88 229.57,-20.32 219.05,-21.6 222.15,-27.88"/>
</a>
</g>
</g>
<!-- Node19&#45;&gt;Node19 -->
<g id="edge24_Node000019_Node000019" class="edge">
<title>Node19&#45;&gt;Node19</title>
<g id="a_edge24_Node000019_Node000019"><a xlink:title=" ">
<path fill="none" stroke="#63b8ff" d="M237.94,-19.54C231.42,-28.15 236.19,-37.25 252.25,-37.25 261.03,-37.25 266.44,-34.53 268.47,-30.65"/>
<polygon fill="#63b8ff" stroke="#63b8ff" points="271.96,-30.29 266.81,-21.03 265.06,-31.48 271.96,-30.29"/>
</a>
</g>
</g>
</g>
</svg>
</svg>

<style type='text/css'>
<![CDATA[
[data-mouse-over-selected='false'] { opacity: 0.7; }
[data-mouse-over-selected='true']  { opacity: 1.0; }
]]>
</style>
<script type="application/ecmascript"><![CDATA[
document.addEventListener('DOMContentLoaded', (event) => {
  highlightEdges();
  highlightAdjacentNodes();
});
]]></script>
</svg>
