<?xml version="1.0" encoding="UTF-8" standalone="no"?>
<!DOCTYPE svg PUBLIC "-//W3C//DTD SVG 1.1//EN"
 "http://www.w3.org/Graphics/SVG/1.1/DTD/svg11.dtd">
<!-- Generated by graphviz version 12.2.1 (20241206.2353)
 -->
<!-- Title: test Pages: 1 -->
<svg width="440pt" height="433pt"
 viewBox="0.00 0.00 439.75 433.25" xmlns="http://www.w3.org/2000/svg" xmlns:xlink="http://www.w3.org/1999/xlink">
<g id="graph0" class="graph" transform="scale(1 1) rotate(0) translate(4 429.25)">
<title>test</title>
<!-- Node1 -->
<g id="Node000001" class="node">
<title>Node1</title>
<g id="a_Node000001"><a xlink:title="Self&#45;test implementations.">
<polygon fill="#999999" stroke="#666666" points="32.5,-217.25 0,-217.25 0,-198 32.5,-198 32.5,-217.25"/>
<text text-anchor="middle" x="16.25" y="-203.75" font-family="Helvetica,sans-Serif" font-size="10.00">test</text>
</a>
</g>
</g>
<!-- Node2 -->
<g id="Node000002" class="node">
<title>Node2</title>
<g id="a_Node000002"><a xlink:href="../../dd/d2e/mcnaughton__yamada__thompson_8c.html#a38faadeab39bb48716f1065bc05abec8" target="_top" xlink:title="Testing helper function.">
<polygon fill="white" stroke="#666666" points="129.5,-217.25 68.5,-217.25 68.5,-198 129.5,-198 129.5,-217.25"/>
<text text-anchor="middle" x="99" y="-203.75" font-family="Helvetica,sans-Serif" font-size="10.00">testHelper</text>
</a>
</g>
</g>
<!-- Node1&#45;&gt;Node2 -->
<g id="edge1_Node000001_Node000002" class="edge">
<title>Node1&#45;&gt;Node2</title>
<g id="a_edge1_Node000001_Node000002"><a xlink:title=" ">
<path fill="none" stroke="#63b8ff" d="M32.82,-207.62C39.69,-207.62 48.12,-207.62 56.61,-207.62"/>
<polygon fill="#63b8ff" stroke="#63b8ff" points="56.58,-211.13 66.58,-207.63 56.58,-204.13 56.58,-211.13"/>
</a>
</g>
</g>
<!-- Node3 -->
<g id="Node000003" class="node">
<title>Node3</title>
<g id="a_Node000003"><a xlink:href="../../dd/d2e/mcnaughton__yamada__thompson_8c.html#a496e9b4e45417ac56dac40bbbb769d7a" target="_top" xlink:title="recursively constructs a AST from a preprocessed regex string">
<polygon fill="white" stroke="#666666" points="235.12,-333.25 179.38,-333.25 179.38,-314 235.12,-314 235.12,-333.25"/>
<text text-anchor="middle" x="207.25" y="-319.75" font-family="Helvetica,sans-Serif" font-size="10.00">buildAST</text>
</a>
</g>
</g>
<!-- Node2&#45;&gt;Node3 -->
<g id="edge2_Node000002_Node000003" class="edge">
<title>Node2&#45;&gt;Node3</title>
<g id="a_edge2_Node000002_Node000003"><a xlink:title=" ">
<path fill="none" stroke="#63b8ff" d="M108.34,-217.33C120.65,-231.59 144.51,-258.97 165.5,-281.62 172.95,-289.66 181.35,-298.37 188.58,-305.77"/>
<polygon fill="#63b8ff" stroke="#63b8ff" points="185.84,-307.98 195.34,-312.66 190.83,-303.07 185.84,-307.98"/>
</a>
</g>
</g>
<!-- Node5 -->
<g id="Node000005" class="node">
<title>Node5</title>
<g id="a_Node000005"><a xlink:href="../../dd/d2e/mcnaughton__yamada__thompson_8c.html#a6a97ab2db6392f262b03370689872348" target="_top" xlink:title="recursively destroys a AST">
<polygon fill="white" stroke="#666666" points="356.5,-407.25 285,-407.25 285,-388 356.5,-388 356.5,-407.25"/>
<text text-anchor="middle" x="320.75" y="-393.75" font-family="Helvetica,sans-Serif" font-size="10.00">destroyNode</text>
</a>
</g>
</g>
<!-- Node2&#45;&gt;Node5 -->
<g id="edge14_Node000002_Node000005" class="edge">
<title>Node2&#45;&gt;Node5</title>
<g id="a_edge14_Node000002_Node000005"><a xlink:title=" ">
<path fill="none" stroke="#63b8ff" d="M101.2,-217.66C105.03,-245.09 119.57,-321.87 165.5,-360.62 195.44,-385.88 239.72,-394.5 273.17,-397.16"/>
<polygon fill="#63b8ff" stroke="#63b8ff" points="272.8,-400.65 283,-397.78 273.24,-393.66 272.8,-400.65"/>
</a>
</g>
</g>
<!-- Node9 -->
<g id="Node000009" class="node">
<title>Node9</title>
<g id="a_Node000009"><a xlink:href="../../dd/d2e/mcnaughton__yamada__thompson_8c.html#a684ed3494e22ee17d7b3e19a4d1fe977" target="_top" xlink:title="recursively destroys a NFA">
<polygon fill="white" stroke="#666666" points="241.5,-254.25 173,-254.25 173,-235 241.5,-235 241.5,-254.25"/>
<text text-anchor="middle" x="207.25" y="-240.75" font-family="Helvetica,sans-Serif" font-size="10.00">destroyNFA</text>
</a>
</g>
</g>
<!-- Node2&#45;&gt;Node9 -->
<g id="edge10_Node000002_Node000009" class="edge">
<title>Node2&#45;&gt;Node9</title>
<g id="a_edge10_Node000002_Node000009"><a xlink:title=" ">
<path fill="none" stroke="#63b8ff" d="M129.03,-217.74C140.63,-221.77 154.17,-226.49 166.64,-230.83"/>
<polygon fill="#63b8ff" stroke="#63b8ff" points="165.23,-234.05 175.82,-234.03 167.53,-227.44 165.23,-234.05"/>
</a>
</g>
</g>
<!-- Node12 -->
<g id="Node000012" class="node">
<title>Node12</title>
<g id="a_Node000012"><a xlink:href="../../dd/d2e/mcnaughton__yamada__thompson_8c.html#a2dabcd5c410a4b0cac1b4ab378c9dcdc" target="_top" xlink:title="determines whether the NFA is currently in its accepting state">
<polygon fill="white" stroke="#666666" points="240.75,-217.25 173.75,-217.25 173.75,-198 240.75,-198 240.75,-217.25"/>
<text text-anchor="middle" x="207.25" y="-203.75" font-family="Helvetica,sans-Serif" font-size="10.00">isAccepting</text>
</a>
</g>
</g>
<!-- Node2&#45;&gt;Node12 -->
<g id="edge15_Node000002_Node000012" class="edge">
<title>Node2&#45;&gt;Node12</title>
<g id="a_edge15_Node000002_Node000012"><a xlink:title=" ">
<path fill="none" stroke="#63b8ff" d="M129.88,-207.62C139.89,-207.62 151.26,-207.62 162.12,-207.62"/>
<polygon fill="#63b8ff" stroke="#63b8ff" points="162.1,-211.13 172.1,-207.63 162.1,-204.13 162.1,-211.13"/>
</a>
</g>
</g>
<!-- Node13 -->
<g id="Node000013" class="node">
<title>Node13</title>
<g id="a_Node000013"><a xlink:href="../../dd/d2e/mcnaughton__yamada__thompson_8c.html#a86e0f235783b005e4e6e951c9603bbe1" target="_top" xlink:title="performs postprocessing on a compiled NFA, add circular empty character transition rules where it&#39;s n...">
<polygon fill="white" stroke="#666666" points="249,-162.25 165.5,-162.25 165.5,-143 249,-143 249,-162.25"/>
<text text-anchor="middle" x="207.25" y="-148.75" font-family="Helvetica,sans-Serif" font-size="10.00">postProcessing</text>
</a>
</g>
</g>
<!-- Node2&#45;&gt;Node13 -->
<g id="edge16_Node000002_Node000013" class="edge">
<title>Node2&#45;&gt;Node13</title>
<g id="a_edge16_Node000002_Node000013"><a xlink:title=" ">
<path fill="none" stroke="#63b8ff" d="M119.49,-197.54C135.51,-189.24 158.48,-177.35 176.75,-167.89"/>
<polygon fill="#63b8ff" stroke="#63b8ff" points="178.27,-171.05 185.54,-163.34 175.05,-164.83 178.27,-171.05"/>
</a>
</g>
</g>
<!-- Node16 -->
<g id="Node000016" class="node">
<title>Node16</title>
<g id="a_Node000016"><a xlink:href="../../dd/d2e/mcnaughton__yamada__thompson_8c.html#ae9a5eac7c0d8ac478eb1b97529638fb6" target="_top" xlink:title="performs preprocessing on a regex string, making all implicit concatenations explicit">
<polygon fill="white" stroke="#666666" points="246.38,-120.25 168.12,-120.25 168.12,-101 246.38,-101 246.38,-120.25"/>
<text text-anchor="middle" x="207.25" y="-106.75" font-family="Helvetica,sans-Serif" font-size="10.00">preProcessing</text>
</a>
</g>
</g>
<!-- Node2&#45;&gt;Node16 -->
<g id="edge20_Node000002_Node000016" class="edge">
<title>Node2&#45;&gt;Node16</title>
<g id="a_edge20_Node000002_Node000016"><a xlink:title=" ">
<path fill="none" stroke="#63b8ff" d="M107.17,-197.57C118.36,-182.38 141.22,-153.26 165.5,-133.62 168.63,-131.1 172.07,-128.69 175.58,-126.44"/>
<polygon fill="#63b8ff" stroke="#63b8ff" points="177.36,-129.46 184.2,-121.37 173.8,-123.43 177.36,-129.46"/>
</a>
</g>
</g>
<!-- Node18 -->
<g id="Node000018" class="node">
<title>Node18</title>
<g id="a_Node000018"><a xlink:href="../../dd/d2e/mcnaughton__yamada__thompson_8c.html#aebe16fbf12c8ac089501ebcae6f0c050" target="_top" xlink:title="moves a NFA forward">
<polygon fill="white" stroke="#666666" points="228.75,-74.25 185.75,-74.25 185.75,-55 228.75,-55 228.75,-74.25"/>
<text text-anchor="middle" x="207.25" y="-60.75" font-family="Helvetica,sans-Serif" font-size="10.00">transit</text>
</a>
</g>
</g>
<!-- Node2&#45;&gt;Node18 -->
<g id="edge22_Node000002_Node000018" class="edge">
<title>Node2&#45;&gt;Node18</title>
<g id="a_edge22_Node000002_Node000018"><a xlink:title=" ">
<path fill="none" stroke="#63b8ff" d="M103.76,-197.62C112.18,-176.2 134.29,-125.14 165.5,-91.62 169.21,-87.64 173.62,-83.96 178.14,-80.68"/>
<polygon fill="#63b8ff" stroke="#63b8ff" points="179.74,-83.82 186.14,-75.37 175.87,-77.98 179.74,-83.82"/>
</a>
</g>
</g>
<!-- Node3&#45;&gt;Node3 -->
<g id="edge3_Node000003_Node000003" class="edge">
<title>Node3&#45;&gt;Node3</title>
<g id="a_edge3_Node000003_Node000003"><a xlink:title=" ">
<path fill="none" stroke="#63b8ff" d="M190.3,-333.54C182.57,-342.15 188.22,-351.25 207.25,-351.25 217.66,-351.25 224.06,-348.53 226.46,-344.65"/>
<polygon fill="#63b8ff" stroke="#63b8ff" points="229.93,-344.12 224.5,-335.02 223.07,-345.52 229.93,-344.12"/>
</a>
</g>
</g>
<!-- Node4 -->
<g id="Node000004" class="node">
<title>Node4</title>
<g id="a_Node000004"><a xlink:href="../../dd/d2e/mcnaughton__yamada__thompson_8c.html#a12df013d848665fdcdcb01870c322af6" target="_top" xlink:title="creates and initializes a AST node">
<polygon fill="white" stroke="#666666" points="353.88,-370.25 287.62,-370.25 287.62,-351 353.88,-351 353.88,-370.25"/>
<text text-anchor="middle" x="320.75" y="-356.75" font-family="Helvetica,sans-Serif" font-size="10.00">createNode</text>
</a>
</g>
</g>
<!-- Node3&#45;&gt;Node4 -->
<g id="edge4_Node000003_Node000004" class="edge">
<title>Node3&#45;&gt;Node4</title>
<g id="a_edge4_Node000003_Node000004"><a xlink:title=" ">
<path fill="none" stroke="#63b8ff" d="M235.53,-332.68C248.58,-337.01 264.47,-342.28 278.92,-347.08"/>
<polygon fill="#63b8ff" stroke="#63b8ff" points="277.59,-350.32 288.18,-350.15 279.79,-343.68 277.59,-350.32"/>
</a>
</g>
</g>
<!-- Node3&#45;&gt;Node5 -->
<g id="edge5_Node000003_Node000005" class="edge">
<title>Node3&#45;&gt;Node5</title>
<g id="a_edge5_Node000003_Node000005"><a xlink:title=" ">
<path fill="none" stroke="#63b8ff" d="M220.6,-333.55C235.44,-345.25 261.3,-364.96 285,-379.62 286.41,-380.5 287.86,-381.37 289.34,-382.22"/>
<polygon fill="#63b8ff" stroke="#63b8ff" points="287.47,-385.19 297.92,-386.94 290.84,-379.05 287.47,-385.19"/>
</a>
</g>
</g>
<!-- Node6 -->
<g id="Node000006" class="node">
<title>Node6</title>
<g id="a_Node000006"><a xlink:href="../../dd/d2e/mcnaughton__yamada__thompson_8c.html#aab463320a19667bd604db2405abefd55" target="_top" xlink:title="utility function to locate the first occurrence of a character in a string while respecting parenthes...">
<polygon fill="white" stroke="#666666" points="345.62,-333.25 295.88,-333.25 295.88,-314 345.62,-314 345.62,-333.25"/>
<text text-anchor="middle" x="320.75" y="-319.75" font-family="Helvetica,sans-Serif" font-size="10.00">indexOf</text>
</a>
</g>
</g>
<!-- Node3&#45;&gt;Node6 -->
<g id="edge7_Node000003_Node000006" class="edge">
<title>Node3&#45;&gt;Node6</title>
<g id="a_edge7_Node000003_Node000006"><a xlink:title=" ">
<path fill="none" stroke="#63b8ff" d="M235.53,-323.62C250.12,-323.62 268.26,-323.62 283.97,-323.62"/>
<polygon fill="#63b8ff" stroke="#63b8ff" points="283.9,-327.13 293.9,-323.63 283.9,-320.13 283.9,-327.13"/>
</a>
</g>
</g>
<!-- Node7 -->
<g id="Node000007" class="node">
<title>Node7</title>
<g id="a_Node000007"><a xlink:href="../../dd/d2e/mcnaughton__yamada__thompson_8c.html#a072d13f905ab9438d38d7415df222817" target="_top" xlink:title="utility function to create a subString">
<polygon fill="white" stroke="#666666" points="349.38,-296.25 292.12,-296.25 292.12,-277 349.38,-277 349.38,-296.25"/>
<text text-anchor="middle" x="320.75" y="-282.75" font-family="Helvetica,sans-Serif" font-size="10.00">subString</text>
</a>
</g>
</g>
<!-- Node3&#45;&gt;Node7 -->
<g id="edge8_Node000003_Node000007" class="edge">
<title>Node3&#45;&gt;Node7</title>
<g id="a_edge8_Node000003_Node000007"><a xlink:title=" ">
<path fill="none" stroke="#63b8ff" d="M235.53,-314.57C249.33,-309.99 266.31,-304.36 281.4,-299.35"/>
<polygon fill="#63b8ff" stroke="#63b8ff" points="282.16,-302.79 290.54,-296.32 279.95,-296.14 282.16,-302.79"/>
</a>
</g>
</g>
<!-- Node5&#45;&gt;Node5 -->
<g id="edge6_Node000005_Node000005" class="edge">
<title>Node5&#45;&gt;Node5</title>
<g id="a_edge6_Node000005_Node000005"><a xlink:title=" ">
<path fill="none" stroke="#63b8ff" d="M306.44,-407.54C299.92,-416.15 304.69,-425.25 320.75,-425.25 329.53,-425.25 334.94,-422.53 336.97,-418.65"/>
<polygon fill="#63b8ff" stroke="#63b8ff" points="340.46,-418.29 335.31,-409.03 333.56,-419.48 340.46,-418.29"/>
</a>
</g>
</g>
<!-- Node8 -->
<g id="Node000008" class="node">
<title>Node8</title>
<g id="a_Node000008"><a xlink:href="../../df/dfa/vector_8c.html#a1afee8aaf33d741df31a73048cff4473" target="_top" xlink:title="This function returns the pointer to the begining of the Vector.">
<polygon fill="white" stroke="#666666" points="431.75,-296.25 392.5,-296.25 392.5,-277 431.75,-277 431.75,-296.25"/>
<text text-anchor="middle" x="412.12" y="-282.75" font-family="Helvetica,sans-Serif" font-size="10.00">begin</text>
</a>
</g>
</g>
<!-- Node7&#45;&gt;Node8 -->
<g id="edge9_Node000007_Node000008" class="edge">
<title>Node7&#45;&gt;Node8</title>
<g id="a_edge9_Node000007_Node000008"><a xlink:title=" ">
<path fill="none" stroke="#63b8ff" d="M349.54,-286.62C359.48,-286.62 370.74,-286.62 380.88,-286.62"/>
<polygon fill="#63b8ff" stroke="#63b8ff" points="380.61,-290.13 390.61,-286.63 380.61,-283.13 380.61,-290.13"/>
</a>
</g>
</g>
<!-- Node9&#45;&gt;Node9 -->
<g id="edge11_Node000009_Node000009" class="edge">
<title>Node9&#45;&gt;Node9</title>
<g id="a_edge11_Node000009_Node000009"><a xlink:title=" ">
<path fill="none" stroke="#63b8ff" d="M190.3,-254.54C182.57,-263.15 188.22,-272.25 207.25,-272.25 217.66,-272.25 224.06,-269.53 226.46,-265.65"/>
<polygon fill="#63b8ff" stroke="#63b8ff" points="229.93,-265.12 224.5,-256.02 223.07,-266.52 229.93,-265.12"/>
</a>
</g>
</g>
<!-- Node10 -->
<g id="Node000010" class="node">
<title>Node10</title>
<g id="a_Node000010"><a xlink:href="../../dd/d2e/mcnaughton__yamada__thompson_8c.html#ade1398311f666988b895f41c3e36d70e" target="_top" xlink:title="destroys a transition rule object">
<polygon fill="white" stroke="#666666" points="355,-259.25 286.5,-259.25 286.5,-240 355,-240 355,-259.25"/>
<text text-anchor="middle" x="320.75" y="-245.75" font-family="Helvetica,sans-Serif" font-size="10.00">destroyRule</text>
</a>
</g>
</g>
<!-- Node9&#45;&gt;Node10 -->
<g id="edge12_Node000009_Node000010" class="edge">
<title>Node9&#45;&gt;Node10</title>
<g id="a_edge12_Node000009_Node000010"><a xlink:title=" ">
<path fill="none" stroke="#63b8ff" d="M241.7,-246.13C252.18,-246.59 263.91,-247.12 275.03,-247.62"/>
<polygon fill="#63b8ff" stroke="#63b8ff" points="274.66,-251.11 284.81,-248.06 274.97,-244.11 274.66,-251.11"/>
</a>
</g>
</g>
<!-- Node11 -->
<g id="Node000011" class="node">
<title>Node11</title>
<g id="a_Node000011"><a xlink:href="../../dd/d2e/mcnaughton__yamada__thompson_8c.html#a9a361f55b51ce6d677e907396fbc1652" target="_top" xlink:title="destroys a NFA state">
<polygon fill="white" stroke="#666666" points="356.5,-222.25 285,-222.25 285,-203 356.5,-203 356.5,-222.25"/>
<text text-anchor="middle" x="320.75" y="-208.75" font-family="Helvetica,sans-Serif" font-size="10.00">destroyState</text>
</a>
</g>
</g>
<!-- Node9&#45;&gt;Node11 -->
<g id="edge13_Node000009_Node000011" class="edge">
<title>Node9&#45;&gt;Node11</title>
<g id="a_edge13_Node000009_Node000011"><a xlink:title=" ">
<path fill="none" stroke="#63b8ff" d="M241.7,-235.02C251.8,-232.13 263.06,-228.9 273.81,-225.81"/>
<polygon fill="#63b8ff" stroke="#63b8ff" points="274.67,-229.2 283.32,-223.08 272.74,-222.48 274.67,-229.2"/>
</a>
</g>
</g>
<!-- Node13&#45;&gt;Node13 -->
<g id="edge19_Node000013_Node000013" class="edge">
<title>Node13&#45;&gt;Node13</title>
<g id="a_edge19_Node000013_Node000013"><a xlink:title=" ">
<path fill="none" stroke="#63b8ff" d="M190.3,-162.54C182.57,-171.15 188.22,-180.25 207.25,-180.25 217.66,-180.25 224.06,-177.53 226.46,-173.65"/>
<polygon fill="#63b8ff" stroke="#63b8ff" points="229.93,-173.12 224.5,-164.02 223.07,-174.52 229.93,-173.12"/>
</a>
</g>
</g>
<!-- Node14 -->
<g id="Node000014" class="node">
<title>Node14</title>
<g id="a_Node000014"><a xlink:href="../../dd/d2e/mcnaughton__yamada__thompson_8c.html#a4ed0049e15d45e0d75a991fbb6f8963c" target="_top" xlink:title="adds a transition rule to a NFA">
<polygon fill="white" stroke="#666666" points="346.75,-185.25 294.75,-185.25 294.75,-166 346.75,-166 346.75,-185.25"/>
<text text-anchor="middle" x="320.75" y="-171.75" font-family="Helvetica,sans-Serif" font-size="10.00">addRule</text>
</a>
</g>
</g>
<!-- Node13&#45;&gt;Node14 -->
<g id="edge17_Node000013_Node000014" class="edge">
<title>Node13&#45;&gt;Node14</title>
<g id="a_edge17_Node000013_Node000014"><a xlink:title=" ">
<path fill="none" stroke="#63b8ff" d="M249.45,-161.12C260.57,-163.42 272.51,-165.88 283.35,-168.12"/>
<polygon fill="#63b8ff" stroke="#63b8ff" points="282.59,-171.53 293.09,-170.13 284,-164.68 282.59,-171.53"/>
</a>
</g>
</g>
<!-- Node15 -->
<g id="Node000015" class="node">
<title>Node15</title>
<g id="a_Node000015"><a xlink:href="../../dd/d2e/mcnaughton__yamada__thompson_8c.html#a0b8d037bf2841dede90be41f5fe1ccdc" target="_top" xlink:title="creates and initializes a transition rule">
<polygon fill="white" stroke="#666666" points="352.38,-148.25 289.12,-148.25 289.12,-129 352.38,-129 352.38,-148.25"/>
<text text-anchor="middle" x="320.75" y="-134.75" font-family="Helvetica,sans-Serif" font-size="10.00">createRule</text>
</a>
</g>
</g>
<!-- Node13&#45;&gt;Node15 -->
<g id="edge18_Node000013_Node000015" class="edge">
<title>Node13&#45;&gt;Node15</title>
<g id="a_edge18_Node000013_Node000015"><a xlink:title=" ">
<path fill="none" stroke="#63b8ff" d="M249.45,-147.45C258.61,-146.3 268.33,-145.08 277.53,-143.93"/>
<polygon fill="#63b8ff" stroke="#63b8ff" points="277.84,-147.41 287.32,-142.7 276.97,-140.47 277.84,-147.41"/>
</a>
</g>
</g>
<!-- Node17 -->
<g id="Node000017" class="node">
<title>Node17</title>
<g id="a_Node000017"><a xlink:href="../../dd/d2e/mcnaughton__yamada__thompson_8c.html#a6eaf52853f2b39a1299cc16972a3298e" target="_top" xlink:title="helper function to determine whether a character should be considered a character literal">
<polygon fill="white" stroke="#666666" points="345.62,-111.25 295.88,-111.25 295.88,-92 345.62,-92 345.62,-111.25"/>
<text text-anchor="middle" x="320.75" y="-97.75" font-family="Helvetica,sans-Serif" font-size="10.00">isLiteral</text>
</a>
</g>
</g>
<!-- Node16&#45;&gt;Node17 -->
<g id="edge21_Node000016_Node000017" class="edge">
<title>Node16&#45;&gt;Node17</title>
<g id="a_edge21_Node000016_Node000017"><a xlink:title=" ">
<path fill="none" stroke="#63b8ff" d="M246.62,-107.53C258.81,-106.54 272.23,-105.46 284.21,-104.49"/>
<polygon fill="#63b8ff" stroke="#63b8ff" points="284.42,-107.99 294.11,-103.69 283.86,-101.01 284.42,-107.99"/>
</a>
</g>
</g>
<!-- Node19 -->
<g id="Node000019" class="node">
<title>Node19</title>
<g id="a_Node000019"><a xlink:href="../../dd/d2e/mcnaughton__yamada__thompson_8c.html#a709e32f5905536216abb03efb4f4db2b" target="_top" xlink:title="helper function to determine an element&#39;s presence in an array">
<polygon fill="white" stroke="#666666" points="347.12,-74.25 294.38,-74.25 294.38,-55 347.12,-55 347.12,-74.25"/>
<text text-anchor="middle" x="320.75" y="-60.75" font-family="Helvetica,sans-Serif" font-size="10.00">contains</text>
</a>
</g>
</g>
<!-- Node18&#45;&gt;Node19 -->
<g id="edge23_Node000018_Node000019" class="edge">
<title>Node18&#45;&gt;Node19</title>
<g id="a_edge23_Node000018_Node000019"><a xlink:title=" ">
<path fill="none" stroke="#63b8ff" d="M229.22,-64.62C244.26,-64.62 264.92,-64.62 282.71,-64.62"/>
<polygon fill="#63b8ff" stroke="#63b8ff" points="282.66,-68.13 292.66,-64.63 282.66,-61.13 282.66,-68.13"/>
</a>
</g>
</g>
<!-- Node20 -->
<g id="Node000020" class="node">
<title>Node20</title>
<g id="a_Node000020"><a xlink:href="../../dd/d2e/mcnaughton__yamada__thompson_8c.html#a34774f1859a742ea1c3eaf3f6726b66c" target="_top" xlink:title="helper function to manage empty character transitions">
<polygon fill="white" stroke="#666666" points="350.88,-19.25 290.62,-19.25 290.62,0 350.88,0 350.88,-19.25"/>
<text text-anchor="middle" x="320.75" y="-5.75" font-family="Helvetica,sans-Serif" font-size="10.00">findEmpty</text>
</a>
</g>
</g>
<!-- Node18&#45;&gt;Node20 -->
<g id="edge24_Node000018_Node000020" class="edge">
<title>Node18&#45;&gt;Node20</title>
<g id="a_edge24_Node000018_Node000020"><a xlink:title=" ">
<path fill="none" stroke="#63b8ff" d="M228.7,-54.54C245.68,-46.16 270.07,-34.13 289.33,-24.63"/>
<polygon fill="#63b8ff" stroke="#63b8ff" points="290.65,-27.88 298.07,-20.32 287.55,-21.6 290.65,-27.88"/>
</a>
</g>
</g>
<!-- Node20&#45;&gt;Node20 -->
<g id="edge25_Node000020_Node000020" class="edge">
<title>Node20&#45;&gt;Node20</title>
<g id="a_edge25_Node000020_Node000020"><a xlink:title=" ">
<path fill="none" stroke="#63b8ff" d="M306.44,-19.54C299.92,-28.15 304.69,-37.25 320.75,-37.25 329.53,-37.25 334.94,-34.53 336.97,-30.65"/>
<polygon fill="#63b8ff" stroke="#63b8ff" points="340.46,-30.29 335.31,-21.03 333.56,-31.48 340.46,-30.29"/>
</a>
</g>
</g>
</g>
</svg>
