<?xml version="1.0" encoding="UTF-8" standalone="no"?>
<!DOCTYPE svg PUBLIC "-//W3C//DTD SVG 1.1//EN"
 "http://www.w3.org/Graphics/SVG/1.1/DTD/svg11.dtd">
<!-- Generated by graphviz version 12.2.1 (20241206.2353)
 -->
<!-- Title: main Pages: 1 -->
<svg width="637pt" height="233pt"
 viewBox="0.00 0.00 637.25 233.25" xmlns="http://www.w3.org/2000/svg" xmlns:xlink="http://www.w3.org/1999/xlink">
<g id="graph0" class="graph" transform="scale(1 1) rotate(0) translate(4 229.25)">
<title>main</title>
<!-- Node1 -->
<g id="Node000001" class="node">
<title>Node1</title>
<g id="a_Node000001"><a xlink:title="Main function.">
<polygon fill="#999999" stroke="#666666" points="37,-149.25 0,-149.25 0,-130 37,-130 37,-149.25"/>
<text text-anchor="middle" x="18.5" y="-135.75" font-family="Helvetica,sans-Serif" font-size="10.00">main</text>
</a>
</g>
</g>
<!-- Node2 -->
<g id="Node000002" class="node">
<title>Node2</title>
<g id="a_Node000002"><a xlink:href="../../d7/d98/spirograph_8c.html#a708a4c1a4d0c4acc4c447310dd4db27f" target="_top" xlink:title="Test function to save resulting points to a CSV file.">
<polygon fill="white" stroke="#666666" points="108.12,-196.25 75.62,-196.25 75.62,-177 108.12,-177 108.12,-196.25"/>
<text text-anchor="middle" x="91.88" y="-182.75" font-family="Helvetica,sans-Serif" font-size="10.00">test</text>
</a>
</g>
</g>
<!-- Node1&#45;&gt;Node2 -->
<g id="edge1_Node000001_Node000002" class="edge">
<title>Node1&#45;&gt;Node2</title>
<g id="a_edge1_Node000001_Node000002"><a xlink:title=" ">
<path fill="none" stroke="#63b8ff" d="M34.64,-149.59C43.82,-155.64 55.75,-163.49 66.26,-170.41"/>
<polygon fill="#63b8ff" stroke="#63b8ff" points="64.22,-173.26 74.5,-175.84 68.07,-167.42 64.22,-173.26"/>
</a>
</g>
</g>
<!-- Node4 -->
<g id="Node000004" class="node">
<title>Node4</title>
<g id="a_Node000004"><a xlink:href="../../dd/d8c/adaline__learning_8c.html#a05cc9a0acb524fde727a4d7b4a747ee6" target="_top" xlink:title="test function to predict points in a 2D coordinate system above the line &#160;as +1 and others as &#45;1.">
<polygon fill="white" stroke="#666666" points="110.75,-131.25 73,-131.25 73,-112 110.75,-112 110.75,-131.25"/>
<text text-anchor="middle" x="91.88" y="-117.75" font-family="Helvetica,sans-Serif" font-size="10.00">test2</text>
</a>
</g>
</g>
<!-- Node1&#45;&gt;Node4 -->
<g id="edge3_Node000001_Node000004" class="edge">
<title>Node1&#45;&gt;Node4</title>
<g id="a_edge3_Node000001_Node000004"><a xlink:title=" ">
<path fill="none" stroke="#63b8ff" d="M37.14,-135.18C44.64,-133.29 53.57,-131.03 61.98,-128.91"/>
<polygon fill="#63b8ff" stroke="#63b8ff" points="62.63,-132.36 71.47,-126.52 60.92,-125.57 62.63,-132.36"/>
</a>
</g>
</g>
<!-- Node3 -->
<g id="Node000003" class="node">
<title>Node3</title>
<g id="a_Node000003"><a xlink:href="../../d7/d98/spirograph_8c.html#a0daa148091ec953809fc172289f773d3" target="_top" xlink:title="Generate spirograph curve into arrays x and y such that the i^th point in 2D is represented by (x[i],...">
<polygon fill="white" stroke="#666666" points="216.38,-225.25 155.38,-225.25 155.38,-206 216.38,-206 216.38,-225.25"/>
<text text-anchor="middle" x="185.88" y="-211.75" font-family="Helvetica,sans-Serif" font-size="10.00">spirograph</text>
</a>
</g>
</g>
<!-- Node2&#45;&gt;Node3 -->
<g id="edge2_Node000002_Node000003" class="edge">
<title>Node2&#45;&gt;Node3</title>
<g id="a_edge2_Node000002_Node000003"><a xlink:title=" ">
<path fill="none" stroke="#63b8ff" d="M108.48,-191.54C118.31,-194.64 131.5,-198.8 144.15,-202.79"/>
<polygon fill="#63b8ff" stroke="#63b8ff" points="143,-206.09 153.59,-205.76 145.1,-199.42 143,-206.09"/>
</a>
</g>
</g>
<!-- Node5 -->
<g id="Node000005" class="node">
<title>Node5</title>
<g id="a_Node000005"><a xlink:href="../../da/d2a/group__adaline.html#gaa52120912e32d2893fe1c6d78da5befd" target="_top" xlink:title="Update the weights of the model using supervised learning for an array of vectors.">
<polygon fill="white" stroke="#666666" points="216,-188.25 155.75,-188.25 155.75,-169 216,-169 216,-188.25"/>
<text text-anchor="middle" x="185.88" y="-174.75" font-family="Helvetica,sans-Serif" font-size="10.00">adaline_fit</text>
</a>
</g>
</g>
<!-- Node4&#45;&gt;Node5 -->
<g id="edge4_Node000004_Node000005" class="edge">
<title>Node4&#45;&gt;Node5</title>
<g id="a_edge4_Node000004_Node000005"><a xlink:title=" ">
<path fill="none" stroke="#63b8ff" d="M108.9,-131.55C122.8,-140.16 143.16,-152.78 159.31,-162.79"/>
<polygon fill="#63b8ff" stroke="#63b8ff" points="157.09,-165.53 167.44,-167.82 160.78,-159.58 157.09,-165.53"/>
</a>
</g>
</g>
<!-- Node7 -->
<g id="Node000007" class="node">
<title>Node7</title>
<g id="a_Node000007"><a xlink:href="../../da/d2a/group__adaline.html#gac70b578aee679005fd336073969c3d94" target="_top" xlink:title="predict the output of the model for given set of features">
<polygon fill="white" stroke="#666666" points="499.25,-149.25 418,-149.25 418,-130 499.25,-130 499.25,-149.25"/>
<text text-anchor="middle" x="458.62" y="-135.75" font-family="Helvetica,sans-Serif" font-size="10.00">adaline_predict</text>
</a>
</g>
</g>
<!-- Node4&#45;&gt;Node7 -->
<g id="edge10_Node000004_Node000007" class="edge">
<title>Node4&#45;&gt;Node7</title>
<g id="a_edge10_Node000004_Node000007"><a xlink:title=" ">
<path fill="none" stroke="#63b8ff" d="M111.23,-120.15C157.09,-116.78 280.3,-109.69 382,-121.62 391.73,-122.77 402.02,-124.71 411.78,-126.9"/>
<polygon fill="#63b8ff" stroke="#63b8ff" points="410.9,-130.29 421.44,-129.22 412.53,-123.49 410.9,-130.29"/>
</a>
</g>
</g>
<!-- Node9 -->
<g id="Node000009" class="node">
<title>Node9</title>
<g id="a_Node000009"><a xlink:href="../../da/d2a/group__adaline.html#gadb1a7acb555ad62daaf3806bf2fed036" target="_top" xlink:title="Operator to print the weights of the model.">
<polygon fill="white" stroke="#666666" points="382,-150.25 261,-150.25 261,-131 382,-131 382,-150.25"/>
<text text-anchor="middle" x="321.5" y="-136.75" font-family="Helvetica,sans-Serif" font-size="10.00">adaline_get_weights_str</text>
</a>
</g>
</g>
<!-- Node4&#45;&gt;Node9 -->
<g id="edge9_Node000004_Node000009" class="edge">
<title>Node4&#45;&gt;Node9</title>
<g id="a_edge9_Node000004_Node000009"><a xlink:title=" ">
<path fill="none" stroke="#63b8ff" d="M111.12,-123.15C140.81,-125.63 201.12,-130.66 249.42,-134.69"/>
<polygon fill="#63b8ff" stroke="#63b8ff" points="249.02,-138.17 259.28,-135.51 249.6,-131.2 249.02,-138.17"/>
</a>
</g>
</g>
<!-- Node10 -->
<g id="Node000010" class="node">
<title>Node10</title>
<g id="a_Node000010"><a xlink:href="../../da/d2a/group__adaline.html#ga6f35caa3084772cc126ac7b20f67f665" target="_top" xlink:title="delete dynamically allocated memory">
<polygon fill="white" stroke="#666666" points="225,-74.25 146.75,-74.25 146.75,-55 225,-55 225,-74.25"/>
<text text-anchor="middle" x="185.88" y="-60.75" font-family="Helvetica,sans-Serif" font-size="10.00">delete_adaline</text>
</a>
</g>
</g>
<!-- Node4&#45;&gt;Node10 -->
<g id="edge11_Node000004_Node000010" class="edge">
<title>Node4&#45;&gt;Node10</title>
<g id="a_edge11_Node000004_Node000010"><a xlink:title=" ">
<path fill="none" stroke="#63b8ff" d="M108.9,-111.7C122.8,-103.09 143.16,-90.47 159.31,-80.46"/>
<polygon fill="#63b8ff" stroke="#63b8ff" points="160.78,-83.67 167.44,-75.43 157.09,-77.72 160.78,-83.67"/>
</a>
</g>
</g>
<!-- Node11 -->
<g id="Node000011" class="node">
<title>Node11</title>
<g id="a_Node000011"><a xlink:href="../../da/d2a/group__adaline.html#gacd88962c5f6341e43cbc69b4a7d3485b" target="_top" xlink:title="Default constructor.">
<polygon fill="white" stroke="#666666" points="220.88,-19.25 150.88,-19.25 150.88,0 220.88,0 220.88,-19.25"/>
<text text-anchor="middle" x="185.88" y="-5.75" font-family="Helvetica,sans-Serif" font-size="10.00">new_adaline</text>
</a>
</g>
</g>
<!-- Node4&#45;&gt;Node11 -->
<g id="edge12_Node000004_Node000011" class="edge">
<title>Node4&#45;&gt;Node11</title>
<g id="a_edge12_Node000004_Node000011"><a xlink:title=" ">
<path fill="none" stroke="#63b8ff" d="M98.94,-111.82C108.36,-96.88 127.44,-67.84 146.75,-45.62 152.29,-39.25 158.81,-32.78 164.89,-27.1"/>
<polygon fill="#63b8ff" stroke="#63b8ff" points="167.12,-29.8 172.17,-20.49 162.41,-24.62 167.12,-29.8"/>
</a>
</g>
</g>
<!-- Node6 -->
<g id="Node000006" class="node">
<title>Node6</title>
<g id="a_Node000006"><a xlink:href="../../da/d2a/group__adaline.html#ga20d3642e0a87f36fdb7bf91b023cd166" target="_top" xlink:title="Update the weights of the model using supervised learning for one feature vector.">
<polygon fill="white" stroke="#666666" points="370,-187.25 273,-187.25 273,-168 370,-168 370,-187.25"/>
<text text-anchor="middle" x="321.5" y="-173.75" font-family="Helvetica,sans-Serif" font-size="10.00">adaline_fit_sample</text>
</a>
</g>
</g>
<!-- Node5&#45;&gt;Node6 -->
<g id="edge5_Node000005_Node000006" class="edge">
<title>Node5&#45;&gt;Node6</title>
<g id="a_edge5_Node000005_Node000006"><a xlink:title=" ">
<path fill="none" stroke="#63b8ff" d="M216.2,-178.41C229.49,-178.31 245.71,-178.18 261.36,-178.07"/>
<polygon fill="#63b8ff" stroke="#63b8ff" points="261.12,-181.57 271.09,-177.99 261.06,-174.57 261.12,-181.57"/>
</a>
</g>
</g>
<!-- Node5&#45;&gt;Node9 -->
<g id="edge8_Node000005_Node000009" class="edge">
<title>Node5&#45;&gt;Node9</title>
<g id="a_edge8_Node000005_Node000009"><a xlink:title=" ">
<path fill="none" stroke="#63b8ff" d="M216.2,-170.29C233.15,-165.46 254.87,-159.29 274.09,-153.82"/>
<polygon fill="#63b8ff" stroke="#63b8ff" points="274.95,-157.22 283.61,-151.11 273.04,-150.48 274.95,-157.22"/>
</a>
</g>
</g>
<!-- Node6&#45;&gt;Node7 -->
<g id="edge6_Node000006_Node000007" class="edge">
<title>Node6&#45;&gt;Node7</title>
<g id="a_edge6_Node000006_Node000007"><a xlink:title=" ">
<path fill="none" stroke="#63b8ff" d="M358.36,-167.54C374.52,-163 393.81,-157.57 411.07,-152.72"/>
<polygon fill="#63b8ff" stroke="#63b8ff" points="411.93,-156.11 420.61,-150.03 410.04,-149.37 411.93,-156.11"/>
</a>
</g>
</g>
<!-- Node8 -->
<g id="Node000008" class="node">
<title>Node8</title>
<g id="a_Node000008"><a xlink:href="../../da/d2a/group__adaline.html#ga43576566b020c4157d4fb28f0dd45cfa" target="_top" xlink:title="Heaviside activation function">
<polygon fill="white" stroke="#666666" points="629.25,-149.25 535.25,-149.25 535.25,-130 629.25,-130 629.25,-149.25"/>
<text text-anchor="middle" x="582.25" y="-135.75" font-family="Helvetica,sans-Serif" font-size="10.00">adaline_activation</text>
</a>
</g>
</g>
<!-- Node7&#45;&gt;Node8 -->
<g id="edge7_Node000007_Node000008" class="edge">
<title>Node7&#45;&gt;Node8</title>
<g id="a_edge7_Node000007_Node000008"><a xlink:title=" ">
<path fill="none" stroke="#63b8ff" d="M499.45,-139.62C507.17,-139.62 515.41,-139.62 523.57,-139.62"/>
<polygon fill="#63b8ff" stroke="#63b8ff" points="523.48,-143.13 533.48,-139.63 523.48,-136.13 523.48,-143.13"/>
</a>
</g>
</g>
<!-- Node11&#45;&gt;Node11 -->
<g id="edge13_Node000011_Node000011" class="edge">
<title>Node11&#45;&gt;Node11</title>
<g id="a_edge13_Node000011_Node000011"><a xlink:title=" ">
<path fill="none" stroke="#63b8ff" d="M171.16,-19.54C164.45,-28.15 169.35,-37.25 185.88,-37.25 194.91,-37.25 200.47,-34.53 202.56,-30.65"/>
<polygon fill="#63b8ff" stroke="#63b8ff" points="206.05,-30.26 200.86,-21.03 199.15,-31.49 206.05,-30.26"/>
</a>
</g>
</g>
</g>
</svg>
