<?xml version="1.0" encoding="UTF-8" standalone="no"?>
<!DOCTYPE svg PUBLIC "-//W3C//DTD SVG 1.1//EN"
 "http://www.w3.org/Graphics/SVG/1.1/DTD/svg11.dtd">
<!-- Generated by graphviz version 12.2.1 (20241206.2353)
 -->
<!-- Title: main Pages: 1 -->
<svg width="336pt" height="156pt"
 viewBox="0.00 0.00 336.00 156.25" xmlns="http://www.w3.org/2000/svg" xmlns:xlink="http://www.w3.org/1999/xlink">
<g id="graph0" class="graph" transform="scale(1 1) rotate(0) translate(4 152.25)">
<title>main</title>
<!-- Node1 -->
<g id="Node000001" class="node">
<title>Node1</title>
<g id="a_Node000001"><a xlink:title="Main function.">
<polygon fill="#999999" stroke="#666666" points="37,-93.25 0,-93.25 0,-74 37,-74 37,-93.25"/>
<text text-anchor="middle" x="18.5" y="-79.75" font-family="Helvetica,sans-Serif" font-size="10.00">main</text>
</a>
</g>
</g>
<!-- Node2 -->
<g id="Node000002" class="node">
<title>Node2</title>
<g id="a_Node000002"><a xlink:href="../../d5/df4/group__sudoku.html#ga702ff4f95dde780c7d04fcdd1021b6c1" target="_top" xlink:title="Print the matrix to stdout.">
<polygon fill="white" stroke="#666666" points="110,-148.25 75.25,-148.25 75.25,-129 110,-129 110,-148.25"/>
<text text-anchor="middle" x="92.62" y="-134.75" font-family="Helvetica,sans-Serif" font-size="10.00">print</text>
</a>
</g>
</g>
<!-- Node1&#45;&gt;Node2 -->
<g id="edge1_Node000001_Node000002" class="edge">
<title>Node1&#45;&gt;Node2</title>
<g id="a_edge1_Node000001_Node000002"><a xlink:title=" ">
<path fill="none" stroke="#63b8ff" d="M32.73,-93.71C43,-101.54 57.46,-112.57 69.49,-121.74"/>
<polygon fill="#63b8ff" stroke="#63b8ff" points="67.2,-124.4 77.28,-127.68 71.45,-118.84 67.2,-124.4"/>
</a>
</g>
</g>
<!-- Node3 -->
<g id="Node000003" class="node">
<title>Node3</title>
<g id="a_Node000003"><a xlink:href="../../d5/df4/group__sudoku.html#gadfe0ed5085b4775d8fa00b434cc0fdfc" target="_top" xlink:title="Function to solve a partially filled sudoku matrix.">
<polygon fill="white" stroke="#666666" points="112.25,-93.25 73,-93.25 73,-74 112.25,-74 112.25,-93.25"/>
<text text-anchor="middle" x="92.62" y="-79.75" font-family="Helvetica,sans-Serif" font-size="10.00">solve</text>
</a>
</g>
</g>
<!-- Node1&#45;&gt;Node3 -->
<g id="edge2_Node000001_Node000003" class="edge">
<title>Node1&#45;&gt;Node3</title>
<g id="a_edge2_Node000001_Node000003"><a xlink:title=" ">
<path fill="none" stroke="#63b8ff" d="M37.33,-83.62C44.56,-83.62 53.12,-83.62 61.28,-83.62"/>
<polygon fill="#63b8ff" stroke="#63b8ff" points="61.23,-87.13 71.23,-83.63 61.23,-80.13 61.23,-87.13"/>
</a>
</g>
</g>
<!-- Node9 -->
<g id="Node000009" class="node">
<title>Node9</title>
<g id="a_Node000009"><a xlink:href="../../df/d27/alaw_8c.html#a840bf13d2e4d75d38fb7bf3a655152f5" target="_top" xlink:title="Self&#45;test implementations.">
<polygon fill="white" stroke="#666666" points="108.88,-56.25 76.38,-56.25 76.38,-37 108.88,-37 108.88,-56.25"/>
<text text-anchor="middle" x="92.62" y="-42.75" font-family="Helvetica,sans-Serif" font-size="10.00">test</text>
</a>
</g>
</g>
<!-- Node1&#45;&gt;Node9 -->
<g id="edge9_Node000001_Node000009" class="edge">
<title>Node1&#45;&gt;Node9</title>
<g id="a_edge9_Node000001_Node000009"><a xlink:title=" ">
<path fill="none" stroke="#63b8ff" d="M37.33,-74.48C45.94,-70.06 56.42,-64.68 65.88,-59.83"/>
<polygon fill="#63b8ff" stroke="#63b8ff" points="67.31,-63.03 74.61,-55.35 64.12,-56.8 67.31,-63.03"/>
</a>
</g>
</g>
<!-- Node3&#45;&gt;Node3 -->
<g id="edge8_Node000003_Node000003" class="edge">
<title>Node3&#45;&gt;Node3</title>
<g id="a_edge8_Node000003_Node000003"><a xlink:title=" ">
<path fill="none" stroke="#63b8ff" d="M81.02,-93.54C75.73,-102.15 79.6,-111.25 92.62,-111.25 99.75,-111.25 104.14,-108.53 105.78,-104.65"/>
<polygon fill="#63b8ff" stroke="#63b8ff" points="109.29,-104.46 104.44,-95.04 102.36,-105.43 109.29,-104.46"/>
</a>
</g>
</g>
<!-- Node4 -->
<g id="Node000004" class="node">
<title>Node4</title>
<g id="a_Node000004"><a xlink:href="../../d5/df4/group__sudoku.html#ga62e94fc39f116e2c81daed8f5437431b" target="_top" xlink:title="Find and get the location for next empty cell.">
<polygon fill="white" stroke="#666666" points="246,-130.25 148.25,-130.25 148.25,-111 246,-111 246,-130.25"/>
<text text-anchor="middle" x="197.12" y="-116.75" font-family="Helvetica,sans-Serif" font-size="10.00">get_next_unknown</text>
</a>
</g>
</g>
<!-- Node3&#45;&gt;Node4 -->
<g id="edge3_Node000003_Node000004" class="edge">
<title>Node3&#45;&gt;Node4</title>
<g id="a_edge3_Node000003_Node000004"><a xlink:title=" ">
<path fill="none" stroke="#63b8ff" d="M112.43,-90.41C125.1,-94.99 142.28,-101.19 157.78,-106.78"/>
<polygon fill="#63b8ff" stroke="#63b8ff" points="156.15,-109.91 166.74,-110.02 158.52,-103.33 156.15,-109.91"/>
</a>
</g>
</g>
<!-- Node5 -->
<g id="Node000005" class="node">
<title>Node5</title>
<g id="a_Node000005"><a xlink:href="../../d5/df4/group__sudoku.html#ga3a0ec150ac9d0cb6b28279d36d95d72f" target="_top" xlink:title="Check if element v is valid to place at (x,y) location.">
<polygon fill="white" stroke="#666666" points="212.25,-93.25 182,-93.25 182,-74 212.25,-74 212.25,-93.25"/>
<text text-anchor="middle" x="197.12" y="-79.75" font-family="Helvetica,sans-Serif" font-size="10.00">OK</text>
</a>
</g>
</g>
<!-- Node3&#45;&gt;Node5 -->
<g id="edge4_Node000003_Node000005" class="edge">
<title>Node3&#45;&gt;Node5</title>
<g id="a_edge4_Node000003_Node000005"><a xlink:title=" ">
<path fill="none" stroke="#63b8ff" d="M112.43,-83.62C128.67,-83.62 152.31,-83.62 170.33,-83.62"/>
<polygon fill="#63b8ff" stroke="#63b8ff" points="170.23,-87.13 180.23,-83.63 170.23,-80.13 170.23,-87.13"/>
</a>
</g>
</g>
<!-- Node6 -->
<g id="Node000006" class="node">
<title>Node6</title>
<g id="a_Node000006"><a xlink:href="../../d5/df4/group__sudoku.html#ga1cd43df3f4187845ce186042fe53e6f1" target="_top" xlink:title="Check if a 3x3 box is valid.">
<polygon fill="white" stroke="#666666" points="328,-130.25 282,-130.25 282,-111 328,-111 328,-130.25"/>
<text text-anchor="middle" x="305" y="-116.75" font-family="Helvetica,sans-Serif" font-size="10.00">OKbox</text>
</a>
</g>
</g>
<!-- Node5&#45;&gt;Node6 -->
<g id="edge5_Node000005_Node000006" class="edge">
<title>Node5&#45;&gt;Node6</title>
<g id="a_edge5_Node000005_Node000006"><a xlink:title=" ">
<path fill="none" stroke="#63b8ff" d="M212.4,-88.61C227.38,-93.85 251.44,-102.26 271.15,-109.14"/>
<polygon fill="#63b8ff" stroke="#63b8ff" points="269.83,-112.39 280.42,-112.38 272.14,-105.78 269.83,-112.39"/>
</a>
</g>
</g>
<!-- Node7 -->
<g id="Node000007" class="node">
<title>Node7</title>
<g id="a_Node000007"><a xlink:href="../../d5/df4/group__sudoku.html#ga6503128d4f5ce0a0826f72f73f9e0b2a" target="_top" xlink:title="Check if y^th column is valid.">
<polygon fill="white" stroke="#666666" points="326.5,-93.25 283.5,-93.25 283.5,-74 326.5,-74 326.5,-93.25"/>
<text text-anchor="middle" x="305" y="-79.75" font-family="Helvetica,sans-Serif" font-size="10.00">OKcol</text>
</a>
</g>
</g>
<!-- Node5&#45;&gt;Node7 -->
<g id="edge6_Node000005_Node000007" class="edge">
<title>Node5&#45;&gt;Node7</title>
<g id="a_edge6_Node000005_Node000007"><a xlink:title=" ">
<path fill="none" stroke="#63b8ff" d="M212.4,-83.62C227.53,-83.62 251.9,-83.62 271.71,-83.62"/>
<polygon fill="#63b8ff" stroke="#63b8ff" points="271.52,-87.13 281.52,-83.63 271.52,-80.13 271.52,-87.13"/>
</a>
</g>
</g>
<!-- Node8 -->
<g id="Node000008" class="node">
<title>Node8</title>
<g id="a_Node000008"><a xlink:href="../../d5/df4/group__sudoku.html#ga85d25d3b40017436f264a103685e4c55" target="_top" xlink:title="Check if x^th row is valid.">
<polygon fill="white" stroke="#666666" points="328,-56.25 282,-56.25 282,-37 328,-37 328,-56.25"/>
<text text-anchor="middle" x="305" y="-42.75" font-family="Helvetica,sans-Serif" font-size="10.00">OKrow</text>
</a>
</g>
</g>
<!-- Node5&#45;&gt;Node8 -->
<g id="edge7_Node000005_Node000008" class="edge">
<title>Node5&#45;&gt;Node8</title>
<g id="a_edge7_Node000005_Node000008"><a xlink:title=" ">
<path fill="none" stroke="#63b8ff" d="M212.4,-78.64C227.38,-73.4 251.44,-64.99 271.15,-58.11"/>
<polygon fill="#63b8ff" stroke="#63b8ff" points="272.14,-61.47 280.42,-54.87 269.83,-54.86 272.14,-61.47"/>
</a>
</g>
</g>
<!-- Node10 -->
<g id="Node000010" class="node">
<title>Node10</title>
<g id="a_Node000010"><a xlink:href="../../df/d27/alaw_8c.html#a093ac72124e3c2268d1150676e63175d" target="_top" xlink:title="8bit alaw to 16bit pcm">
<polygon fill="white" stroke="#666666" points="220.88,-56.25 173.38,-56.25 173.38,-37 220.88,-37 220.88,-56.25"/>
<text text-anchor="middle" x="197.12" y="-42.75" font-family="Helvetica,sans-Serif" font-size="10.00">decode</text>
</a>
</g>
</g>
<!-- Node9&#45;&gt;Node10 -->
<g id="edge10_Node000009_Node000010" class="edge">
<title>Node9&#45;&gt;Node10</title>
<g id="a_edge10_Node000009_Node000010"><a xlink:title=" ">
<path fill="none" stroke="#63b8ff" d="M109.19,-46.62C123.09,-46.62 143.94,-46.62 161.74,-46.62"/>
<polygon fill="#63b8ff" stroke="#63b8ff" points="161.66,-50.13 171.66,-46.63 161.66,-43.13 161.66,-50.13"/>
</a>
</g>
</g>
<!-- Node12 -->
<g id="Node000012" class="node">
<title>Node12</title>
<g id="a_Node000012"><a xlink:href="../../df/d27/alaw_8c.html#a751d8e2c1975706e4d876316518c54c4" target="_top" xlink:title="16bit pcm to 8bit alaw">
<polygon fill="white" stroke="#666666" points="220.88,-19.25 173.38,-19.25 173.38,0 220.88,0 220.88,-19.25"/>
<text text-anchor="middle" x="197.12" y="-5.75" font-family="Helvetica,sans-Serif" font-size="10.00">encode</text>
</a>
</g>
</g>
<!-- Node9&#45;&gt;Node12 -->
<g id="edge12_Node000009_Node000012" class="edge">
<title>Node9&#45;&gt;Node12</title>
<g id="a_edge12_Node000009_Node000012"><a xlink:title=" ">
<path fill="none" stroke="#63b8ff" d="M109.19,-41.01C123.29,-35.92 144.54,-28.24 162.5,-21.76"/>
<polygon fill="#63b8ff" stroke="#63b8ff" points="163.53,-25.11 171.75,-18.43 161.15,-18.53 163.53,-25.11"/>
</a>
</g>
</g>
<!-- Node11 -->
<g id="Node000011" class="node">
<title>Node11</title>
<g id="a_Node000011"><a xlink:href="../../da/d4a/bisection__method_8c.html#a858396a5abdb7865e71cf803fdcb37ae" target="_top" xlink:title="Function to check if two input values have the same sign (the property of being positive or negative)">
<polygon fill="white" stroke="#666666" points="322,-19.25 288,-19.25 288,0 322,0 322,-19.25"/>
<text text-anchor="middle" x="305" y="-5.75" font-family="Helvetica,sans-Serif" font-size="10.00">sign</text>
</a>
</g>
</g>
<!-- Node10&#45;&gt;Node11 -->
<g id="edge11_Node000010_Node000011" class="edge">
<title>Node10&#45;&gt;Node11</title>
<g id="a_edge11_Node000010_Node000011"><a xlink:title=" ">
<path fill="none" stroke="#63b8ff" d="M221.36,-38.51C237.84,-32.75 259.99,-25 277.22,-18.99"/>
<polygon fill="#63b8ff" stroke="#63b8ff" points="278,-22.42 286.28,-15.82 275.69,-15.81 278,-22.42"/>
</a>
</g>
</g>
<!-- Node12&#45;&gt;Node11 -->
<g id="edge13_Node000012_Node000011" class="edge">
<title>Node12&#45;&gt;Node11</title>
<g id="a_edge13_Node000012_Node000011"><a xlink:title=" ">
<path fill="none" stroke="#63b8ff" d="M221.36,-9.62C237.52,-9.62 259.15,-9.62 276.23,-9.62"/>
<polygon fill="#63b8ff" stroke="#63b8ff" points="276.2,-13.13 286.2,-9.63 276.2,-6.13 276.2,-13.13"/>
</a>
</g>
</g>
</g>
</svg>
