<?xml version="1.0" encoding="UTF-8" standalone="no"?>
<!DOCTYPE svg PUBLIC "-//W3C//DTD SVG 1.1//EN"
 "http://www.w3.org/Graphics/SVG/1.1/DTD/svg11.dtd">
<!-- Generated by graphviz version 12.2.1 (20241206.2353)
 -->
<!-- Title: test2 Pages: 1 -->
<svg width="564pt" height="196pt"
 viewBox="0.00 0.00 564.25 196.25" xmlns="http://www.w3.org/2000/svg" xmlns:xlink="http://www.w3.org/1999/xlink">
<g id="graph0" class="graph" transform="scale(1 1) rotate(0) translate(4 192.25)">
<title>test2</title>
<!-- Node1 -->
<g id="Node000001" class="node">
<title>Node1</title>
<g id="a_Node000001"><a xlink:title="test function to predict points in a 2D coordinate system above the line &#160;as +1 and others as &#45;1.">
<polygon fill="#999999" stroke="#666666" points="37.75,-112.25 0,-112.25 0,-93 37.75,-93 37.75,-112.25"/>
<text text-anchor="middle" x="18.88" y="-98.75" font-family="Helvetica,sans-Serif" font-size="10.00">test2</text>
</a>
</g>
</g>
<!-- Node2 -->
<g id="Node000002" class="node">
<title>Node2</title>
<g id="a_Node000002"><a xlink:href="../../da/d2a/group__adaline.html#gaa52120912e32d2893fe1c6d78da5befd" target="_top" xlink:title="Update the weights of the model using supervised learning for an array of vectors.">
<polygon fill="white" stroke="#666666" points="143,-188.25 82.75,-188.25 82.75,-169 143,-169 143,-188.25"/>
<text text-anchor="middle" x="112.88" y="-174.75" font-family="Helvetica,sans-Serif" font-size="10.00">adaline_fit</text>
</a>
</g>
</g>
<!-- Node1&#45;&gt;Node2 -->
<g id="edge1_Node000001_Node000002" class="edge">
<title>Node1&#45;&gt;Node2</title>
<g id="a_edge1_Node000001_Node000002"><a xlink:title=" ">
<path fill="none" stroke="#63b8ff" d="M28.87,-112.45C39.16,-123.4 56.77,-141.31 73.75,-154.62 77.15,-157.29 80.86,-159.92 84.59,-162.41"/>
<polygon fill="#63b8ff" stroke="#63b8ff" points="82.69,-165.36 93.01,-167.78 86.46,-159.46 82.69,-165.36"/>
</a>
</g>
</g>
<!-- Node4 -->
<g id="Node000004" class="node">
<title>Node4</title>
<g id="a_Node000004"><a xlink:href="../../da/d2a/group__adaline.html#gac70b578aee679005fd336073969c3d94" target="_top" xlink:title="predict the output of the model for given set of features">
<polygon fill="white" stroke="#666666" points="426.25,-149.25 345,-149.25 345,-130 426.25,-130 426.25,-149.25"/>
<text text-anchor="middle" x="385.62" y="-135.75" font-family="Helvetica,sans-Serif" font-size="10.00">adaline_predict</text>
</a>
</g>
</g>
<!-- Node1&#45;&gt;Node4 -->
<g id="edge7_Node000001_Node000004" class="edge">
<title>Node1&#45;&gt;Node4</title>
<g id="a_edge7_Node000001_Node000004"><a xlink:title=" ">
<path fill="none" stroke="#63b8ff" d="M37.92,-102.76C83.57,-103.33 207.28,-106.29 309,-121.62 318.11,-123 327.73,-124.92 336.96,-127"/>
<polygon fill="#63b8ff" stroke="#63b8ff" points="335.93,-130.35 346.47,-129.24 337.54,-123.54 335.93,-130.35"/>
</a>
</g>
</g>
<!-- Node6 -->
<g id="Node000006" class="node">
<title>Node6</title>
<g id="a_Node000006"><a xlink:href="../../da/d2a/group__adaline.html#gadb1a7acb555ad62daaf3806bf2fed036" target="_top" xlink:title="Operator to print the weights of the model.">
<polygon fill="white" stroke="#666666" points="309,-150.25 188,-150.25 188,-131 309,-131 309,-150.25"/>
<text text-anchor="middle" x="248.5" y="-136.75" font-family="Helvetica,sans-Serif" font-size="10.00">adaline_get_weights_str</text>
</a>
</g>
</g>
<!-- Node1&#45;&gt;Node6 -->
<g id="edge6_Node000001_Node000006" class="edge">
<title>Node1&#45;&gt;Node6</title>
<g id="a_edge6_Node000001_Node000006"><a xlink:title=" ">
<path fill="none" stroke="#63b8ff" d="M38.2,-107.96C48.57,-110.83 61.81,-114.26 73.75,-116.62 107.27,-123.27 144.79,-128.7 176.36,-132.71"/>
<polygon fill="#63b8ff" stroke="#63b8ff" points="175.85,-136.17 186.2,-133.93 176.71,-129.22 175.85,-136.17"/>
</a>
</g>
</g>
<!-- Node7 -->
<g id="Node000007" class="node">
<title>Node7</title>
<g id="a_Node000007"><a xlink:href="../../da/d2a/group__adaline.html#ga6f35caa3084772cc126ac7b20f67f665" target="_top" xlink:title="delete dynamically allocated memory">
<polygon fill="white" stroke="#666666" points="152,-74.25 73.75,-74.25 73.75,-55 152,-55 152,-74.25"/>
<text text-anchor="middle" x="112.88" y="-60.75" font-family="Helvetica,sans-Serif" font-size="10.00">delete_adaline</text>
</a>
</g>
</g>
<!-- Node1&#45;&gt;Node7 -->
<g id="edge8_Node000001_Node000007" class="edge">
<title>Node1&#45;&gt;Node7</title>
<g id="a_edge8_Node000001_Node000007"><a xlink:title=" ">
<path fill="none" stroke="#63b8ff" d="M38.05,-95.12C49.21,-90.51 63.86,-84.46 77.17,-78.96"/>
<polygon fill="#63b8ff" stroke="#63b8ff" points="78.16,-82.34 86.07,-75.29 75.49,-75.87 78.16,-82.34"/>
</a>
</g>
</g>
<!-- Node8 -->
<g id="Node000008" class="node">
<title>Node8</title>
<g id="a_Node000008"><a xlink:href="../../da/d2a/group__adaline.html#gacd88962c5f6341e43cbc69b4a7d3485b" target="_top" xlink:title="Default constructor.">
<polygon fill="white" stroke="#666666" points="147.88,-19.25 77.88,-19.25 77.88,0 147.88,0 147.88,-19.25"/>
<text text-anchor="middle" x="112.88" y="-5.75" font-family="Helvetica,sans-Serif" font-size="10.00">new_adaline</text>
</a>
</g>
</g>
<!-- Node1&#45;&gt;Node8 -->
<g id="edge9_Node000001_Node000008" class="edge">
<title>Node1&#45;&gt;Node8</title>
<g id="a_edge9_Node000001_Node000008"><a xlink:title=" ">
<path fill="none" stroke="#63b8ff" d="M28.86,-92.78C39.42,-81.29 57.57,-61.8 73.75,-45.62 79.81,-39.57 86.56,-33.11 92.68,-27.35"/>
<polygon fill="#63b8ff" stroke="#63b8ff" points="95.01,-29.96 99.93,-20.58 90.23,-24.85 95.01,-29.96"/>
</a>
</g>
</g>
<!-- Node3 -->
<g id="Node000003" class="node">
<title>Node3</title>
<g id="a_Node000003"><a xlink:href="../../da/d2a/group__adaline.html#ga20d3642e0a87f36fdb7bf91b023cd166" target="_top" xlink:title="Update the weights of the model using supervised learning for one feature vector.">
<polygon fill="white" stroke="#666666" points="297,-187.25 200,-187.25 200,-168 297,-168 297,-187.25"/>
<text text-anchor="middle" x="248.5" y="-173.75" font-family="Helvetica,sans-Serif" font-size="10.00">adaline_fit_sample</text>
</a>
</g>
</g>
<!-- Node2&#45;&gt;Node3 -->
<g id="edge2_Node000002_Node000003" class="edge">
<title>Node2&#45;&gt;Node3</title>
<g id="a_edge2_Node000002_Node000003"><a xlink:title=" ">
<path fill="none" stroke="#63b8ff" d="M143.2,-178.41C156.49,-178.31 172.71,-178.18 188.36,-178.07"/>
<polygon fill="#63b8ff" stroke="#63b8ff" points="188.12,-181.57 198.09,-177.99 188.06,-174.57 188.12,-181.57"/>
</a>
</g>
</g>
<!-- Node2&#45;&gt;Node6 -->
<g id="edge5_Node000002_Node000006" class="edge">
<title>Node2&#45;&gt;Node6</title>
<g id="a_edge5_Node000002_Node000006"><a xlink:title=" ">
<path fill="none" stroke="#63b8ff" d="M143.2,-170.29C160.15,-165.46 181.87,-159.29 201.09,-153.82"/>
<polygon fill="#63b8ff" stroke="#63b8ff" points="201.95,-157.22 210.61,-151.11 200.04,-150.48 201.95,-157.22"/>
</a>
</g>
</g>
<!-- Node3&#45;&gt;Node4 -->
<g id="edge3_Node000003_Node000004" class="edge">
<title>Node3&#45;&gt;Node4</title>
<g id="a_edge3_Node000003_Node000004"><a xlink:title=" ">
<path fill="none" stroke="#63b8ff" d="M285.36,-167.54C301.52,-163 320.81,-157.57 338.07,-152.72"/>
<polygon fill="#63b8ff" stroke="#63b8ff" points="338.93,-156.11 347.61,-150.03 337.04,-149.37 338.93,-156.11"/>
</a>
</g>
</g>
<!-- Node5 -->
<g id="Node000005" class="node">
<title>Node5</title>
<g id="a_Node000005"><a xlink:href="../../da/d2a/group__adaline.html#ga43576566b020c4157d4fb28f0dd45cfa" target="_top" xlink:title="Heaviside activation function">
<polygon fill="white" stroke="#666666" points="556.25,-149.25 462.25,-149.25 462.25,-130 556.25,-130 556.25,-149.25"/>
<text text-anchor="middle" x="509.25" y="-135.75" font-family="Helvetica,sans-Serif" font-size="10.00">adaline_activation</text>
</a>
</g>
</g>
<!-- Node4&#45;&gt;Node5 -->
<g id="edge4_Node000004_Node000005" class="edge">
<title>Node4&#45;&gt;Node5</title>
<g id="a_edge4_Node000004_Node000005"><a xlink:title=" ">
<path fill="none" stroke="#63b8ff" d="M426.45,-139.62C434.17,-139.62 442.41,-139.62 450.57,-139.62"/>
<polygon fill="#63b8ff" stroke="#63b8ff" points="450.48,-143.13 460.48,-139.63 450.48,-136.13 450.48,-143.13"/>
</a>
</g>
</g>
<!-- Node8&#45;&gt;Node8 -->
<g id="edge10_Node000008_Node000008" class="edge">
<title>Node8&#45;&gt;Node8</title>
<g id="a_edge10_Node000008_Node000008"><a xlink:title=" ">
<path fill="none" stroke="#63b8ff" d="M98.16,-19.54C91.45,-28.15 96.35,-37.25 112.88,-37.25 121.91,-37.25 127.47,-34.53 129.56,-30.65"/>
<polygon fill="#63b8ff" stroke="#63b8ff" points="133.05,-30.26 127.86,-21.03 126.15,-31.49 133.05,-30.26"/>
</a>
</g>
</g>
</g>
</svg>
