<?xml version="1.0" encoding="UTF-8" standalone="no"?>
<!DOCTYPE svg PUBLIC "-//W3C//DTD SVG 1.1//EN"
 "http://www.w3.org/Graphics/SVG/1.1/DTD/svg11.dtd">
<!-- Generated by graphviz version 12.2.1 (20241206.2353)
 -->
<!-- Title: test Pages: 1 -->
<svg width="273pt" height="139pt"
 viewBox="0.00 0.00 273.00 139.25" xmlns="http://www.w3.org/2000/svg" xmlns:xlink="http://www.w3.org/1999/xlink">

<svg id="main" version="1.1" xmlns="http://www.w3.org/2000/svg" xmlns:xlink="http://www.w3.org/1999/xlink" xml:space="preserve">

<style type="text/css"><![CDATA[
.node, .edge {opacity: 0.7;}
.node.selected, .edge.selected {opacity: 1;}
.edge:hover path { stroke: red; }
.edge:hover polygon { stroke: red; fill: red; }
]]></style>
<script type="application/ecmascript" xlink:href="../../svg.min.js"/>
<svg id="graph" class="graph">
<g id="graph0" class="graph" transform="scale(1 1) rotate(0) translate(4 135.25)">
<title>test</title>
<!-- Node1 -->
<g id="Node000001" class="node">
<title>Node1</title>
<g id="a_Node000001"><a xlink:title="Self&#45;test implementations.">
<polygon fill="#999999" stroke="#666666" points="32.5,-93.25 0,-93.25 0,-74 32.5,-74 32.5,-93.25"/>
<text text-anchor="middle" x="16.25" y="-79.75" font-family="Helvetica,sans-Serif" font-size="10.00">test</text>
</a>
</g>
</g>
<!-- Node2 -->
<g id="Node000002" class="node">
<title>Node2</title>
<g id="a_Node000002"><a xlink:href="../../d7/d3b/group__hash.html#ga049d44b5a4804ca5a1b7a290f3fa3202" target="_top" xlink:title="blake2b mixing function G">
<polygon fill="white" stroke="#666666" points="181.53,-131.25 152.72,-131.25 152.72,-112 181.53,-112 181.53,-131.25"/>
<text text-anchor="middle" x="167.12" y="-117.75" font-family="Helvetica,sans-Serif" font-size="10.00">G</text>
</a>
</g>
</g>
<!-- Node1&#45;&gt;Node2 -->
<g id="edge1_Node000001_Node000002" class="edge">
<title>Node1&#45;&gt;Node2</title>
<g id="a_edge1_Node000001_Node000002"><a xlink:title=" ">
<path fill="none" stroke="#63b8ff" d="M32.73,-90.12C42.79,-94.14 56.26,-99.19 68.5,-102.62 92.87,-109.46 121.34,-114.7 141.22,-117.93"/>
<polygon fill="#63b8ff" stroke="#63b8ff" points="140.46,-121.35 150.88,-119.44 141.54,-114.44 140.46,-121.35"/>
</a>
</g>
</g>
<!-- Node3 -->
<g id="Node000003" class="node">
<title>Node3</title>
<g id="a_Node000003"><a xlink:href="../../d9/dcc/prim_8c.html#a0bea087eb586c437cf0a667f794c8853" target="_top" xlink:title="Used to find MST of user&#45;generated adj matrix G.">
<polygon fill="white" stroke="#666666" points="103.25,-93.25 68.5,-93.25 68.5,-74 103.25,-74 103.25,-93.25"/>
<text text-anchor="middle" x="85.88" y="-79.75" font-family="Helvetica,sans-Serif" font-size="10.00">prim</text>
</a>
</g>
</g>
<!-- Node1&#45;&gt;Node3 -->
<g id="edge2_Node000001_Node000003" class="edge">
<title>Node1&#45;&gt;Node3</title>
<g id="a_edge2_Node000001_Node000003"><a xlink:title=" ">
<path fill="none" stroke="#63b8ff" d="M32.93,-83.62C40.07,-83.62 48.72,-83.62 56.91,-83.62"/>
<polygon fill="#63b8ff" stroke="#63b8ff" points="56.82,-87.13 66.82,-83.63 56.82,-80.13 56.82,-87.13"/>
</a>
</g>
</g>
<!-- Node5 -->
<g id="Node000005" class="node">
<title>Node5</title>
<g id="a_Node000005"><a xlink:href="../../df/d27/alaw_8c.html#a840bf13d2e4d75d38fb7bf3a655152f5" target="_top" xlink:title="Self&#45;test implementations.">
<polygon fill="white" stroke="#666666" points="102.12,-56.25 69.62,-56.25 69.62,-37 102.12,-37 102.12,-56.25"/>
<text text-anchor="middle" x="85.88" y="-42.75" font-family="Helvetica,sans-Serif" font-size="10.00">test</text>
</a>
</g>
</g>
<!-- Node1&#45;&gt;Node5 -->
<g id="edge5_Node000001_Node000005" class="edge">
<title>Node1&#45;&gt;Node5</title>
<g id="a_edge5_Node000001_Node000005"><a xlink:title=" ">
<path fill="none" stroke="#63b8ff" d="M32.93,-75.04C40.79,-70.75 50.49,-65.44 59.38,-60.58"/>
<polygon fill="#63b8ff" stroke="#63b8ff" points="60.85,-63.76 67.95,-55.89 57.5,-57.62 60.85,-63.76"/>
</a>
</g>
</g>
<!-- Node3&#45;&gt;Node2 -->
<g id="edge3_Node000003_Node000002" class="edge">
<title>Node3&#45;&gt;Node2</title>
<g id="a_edge3_Node000003_Node000002"><a xlink:title=" ">
<path fill="none" stroke="#63b8ff" d="M103.68,-91.68C114.86,-97.04 129.71,-104.16 142.12,-110.11"/>
<polygon fill="#63b8ff" stroke="#63b8ff" points="140.35,-113.15 150.88,-114.32 143.38,-106.84 140.35,-113.15"/>
</a>
</g>
</g>
<!-- Node4 -->
<g id="Node000004" class="node">
<title>Node4</title>
<g id="a_Node000004"><a xlink:href="../../d9/dcc/prim_8c.html#a72ec66b10f86d67064d34f2b2717fdfc" target="_top" xlink:title="Finds index of minimum element in edge list for an arbitrary vertex.">
<polygon fill="white" stroke="#666666" points="195,-93.25 139.25,-93.25 139.25,-74 195,-74 195,-93.25"/>
<text text-anchor="middle" x="167.12" y="-79.75" font-family="Helvetica,sans-Serif" font-size="10.00">minimum</text>
</a>
</g>
</g>
<!-- Node3&#45;&gt;Node4 -->
<g id="edge4_Node000003_Node000004" class="edge">
<title>Node3&#45;&gt;Node4</title>
<g id="a_edge4_Node000003_Node000004"><a xlink:title=" ">
<path fill="none" stroke="#63b8ff" d="M103.68,-83.62C110.74,-83.62 119.27,-83.62 127.72,-83.62"/>
<polygon fill="#63b8ff" stroke="#63b8ff" points="127.54,-87.13 137.54,-83.63 127.54,-80.13 127.54,-87.13"/>
</a>
</g>
</g>
<!-- Node6 -->
<g id="Node000006" class="node">
<title>Node6</title>
<g id="a_Node000006"><a xlink:href="../../df/d27/alaw_8c.html#a093ac72124e3c2268d1150676e63175d" target="_top" xlink:title="8bit alaw to 16bit pcm">
<polygon fill="white" stroke="#666666" points="190.88,-56.25 143.38,-56.25 143.38,-37 190.88,-37 190.88,-56.25"/>
<text text-anchor="middle" x="167.12" y="-42.75" font-family="Helvetica,sans-Serif" font-size="10.00">decode</text>
</a>
</g>
</g>
<!-- Node5&#45;&gt;Node6 -->
<g id="edge6_Node000005_Node000006" class="edge">
<title>Node5&#45;&gt;Node6</title>
<g id="a_edge6_Node000005_Node000006"><a xlink:title=" ">
<path fill="none" stroke="#63b8ff" d="M102.53,-46.62C110.83,-46.62 121.38,-46.62 131.49,-46.62"/>
<polygon fill="#63b8ff" stroke="#63b8ff" points="131.48,-50.13 141.48,-46.63 131.48,-43.13 131.48,-50.13"/>
</a>
</g>
</g>
<!-- Node8 -->
<g id="Node000008" class="node">
<title>Node8</title>
<g id="a_Node000008"><a xlink:href="../../df/d27/alaw_8c.html#a751d8e2c1975706e4d876316518c54c4" target="_top" xlink:title="16bit pcm to 8bit alaw">
<polygon fill="white" stroke="#666666" points="190.88,-19.25 143.38,-19.25 143.38,0 190.88,0 190.88,-19.25"/>
<text text-anchor="middle" x="167.12" y="-5.75" font-family="Helvetica,sans-Serif" font-size="10.00">encode</text>
</a>
</g>
</g>
<!-- Node5&#45;&gt;Node8 -->
<g id="edge8_Node000005_Node000008" class="edge">
<title>Node5&#45;&gt;Node8</title>
<g id="a_edge8_Node000005_Node000008"><a xlink:title=" ">
<path fill="none" stroke="#63b8ff" d="M102.53,-39.31C111.63,-35.07 123.42,-29.57 134.37,-24.45"/>
<polygon fill="#63b8ff" stroke="#63b8ff" points="135.55,-27.76 143.13,-20.36 132.59,-21.42 135.55,-27.76"/>
</a>
</g>
</g>
<!-- Node7 -->
<g id="Node000007" class="node">
<title>Node7</title>
<g id="a_Node000007"><a xlink:href="../../da/d4a/bisection__method_8c.html#a858396a5abdb7865e71cf803fdcb37ae" target="_top" xlink:title="Function to check if two input values have the same sign (the property of being positive or negative)">
<polygon fill="white" stroke="#666666" points="265,-37.25 231,-37.25 231,-18 265,-18 265,-37.25"/>
<text text-anchor="middle" x="248" y="-23.75" font-family="Helvetica,sans-Serif" font-size="10.00">sign</text>
</a>
</g>
</g>
<!-- Node6&#45;&gt;Node7 -->
<g id="edge7_Node000006_Node000007" class="edge">
<title>Node6&#45;&gt;Node7</title>
<g id="a_edge7_Node000006_Node000007"><a xlink:title=" ">
<path fill="none" stroke="#63b8ff" d="M191.36,-41.03C200.31,-38.87 210.6,-36.39 219.88,-34.16"/>
<polygon fill="#63b8ff" stroke="#63b8ff" points="220.55,-37.6 229.45,-31.85 218.91,-30.79 220.55,-37.6"/>
</a>
</g>
</g>
<!-- Node8&#45;&gt;Node7 -->
<g id="edge9_Node000008_Node000007" class="edge">
<title>Node8&#45;&gt;Node7</title>
<g id="a_edge9_Node000008_Node000007"><a xlink:title=" ">
<path fill="none" stroke="#63b8ff" d="M191.36,-14.93C200.31,-16.97 210.6,-19.32 219.88,-21.44"/>
<polygon fill="#63b8ff" stroke="#63b8ff" points="218.92,-24.81 229.44,-23.62 220.47,-17.98 218.92,-24.81"/>
</a>
</g>
</g>
</g>
</svg>
</svg>

<style type='text/css'>
<![CDATA[
[data-mouse-over-selected='false'] { opacity: 0.7; }
[data-mouse-over-selected='true']  { opacity: 1.0; }
]]>
</style>
<script type="application/ecmascript"><![CDATA[
document.addEventListener('DOMContentLoaded', (event) => {
  highlightEdges();
  highlightAdjacentNodes();
});
]]></script>
</svg>
