<?xml version="1.0" encoding="UTF-8" standalone="no"?>
<!DOCTYPE svg PUBLIC "-//W3C//DTD SVG 1.1//EN"
 "http://www.w3.org/Graphics/SVG/1.1/DTD/svg11.dtd">
<!-- Generated by graphviz version 12.2.1 (20241206.2353)
 -->
<!-- Title: test Pages: 1 -->
<svg width="328pt" height="82pt"
 viewBox="0.00 0.00 327.75 82.25" xmlns="http://www.w3.org/2000/svg" xmlns:xlink="http://www.w3.org/1999/xlink">
<g id="graph0" class="graph" transform="scale(1 1) rotate(0) translate(4 78.25)">
<title>test</title>
<!-- Node1 -->
<g id="Node000001" class="node">
<title>Node1</title>
<g id="a_Node000001"><a xlink:title="Self&#45;test implementations.">
<polygon fill="#999999" stroke="#666666" points="32.5,-55.25 0,-55.25 0,-36 32.5,-36 32.5,-55.25"/>
<text text-anchor="middle" x="16.25" y="-41.75" font-family="Helvetica,sans-Serif" font-size="10.00">test</text>
</a>
</g>
</g>
<!-- Node2 -->
<g id="Node000002" class="node">
<title>Node2</title>
<g id="a_Node000002"><a xlink:href="../../d1/dc7/run__length__encoding_8c.html#ac3cc4a63cf2a14a08e05c5537ecf59c2" target="_top" xlink:title="for IO operations">
<polygon fill="white" stroke="#666666" points="166.25,-74.25 68.5,-74.25 68.5,-55 166.25,-55 166.25,-74.25"/>
<text text-anchor="middle" x="117.38" y="-60.75" font-family="Helvetica,sans-Serif" font-size="10.00">run_length_encode</text>
</a>
</g>
</g>
<!-- Node1&#45;&gt;Node2 -->
<g id="edge1_Node000001_Node000002" class="edge">
<title>Node1&#45;&gt;Node2</title>
<g id="a_edge1_Node000001_Node000002"><a xlink:title=" ">
<path fill="none" stroke="#63b8ff" d="M32.74,-48.59C39.63,-49.91 48.22,-51.56 57.26,-53.29"/>
<polygon fill="#63b8ff" stroke="#63b8ff" points="56.44,-56.7 66.92,-55.15 57.76,-49.83 56.44,-56.7"/>
</a>
</g>
</g>
<!-- Node3 -->
<g id="Node000003" class="node">
<title>Node3</title>
<g id="a_Node000003"><a xlink:href="../../df/d27/alaw_8c.html#a840bf13d2e4d75d38fb7bf3a655152f5" target="_top" xlink:title="Self&#45;test implementations.">
<polygon fill="white" stroke="#666666" points="133.62,-37.25 101.12,-37.25 101.12,-18 133.62,-18 133.62,-37.25"/>
<text text-anchor="middle" x="117.38" y="-23.75" font-family="Helvetica,sans-Serif" font-size="10.00">test</text>
</a>
</g>
</g>
<!-- Node1&#45;&gt;Node3 -->
<g id="edge2_Node000001_Node000003" class="edge">
<title>Node1&#45;&gt;Node3</title>
<g id="a_edge2_Node000001_Node000003"><a xlink:title=" ">
<path fill="none" stroke="#63b8ff" d="M32.74,-42.81C47.93,-40.05 71.38,-35.79 89.6,-32.49"/>
<polygon fill="#63b8ff" stroke="#63b8ff" points="89.97,-35.98 99.18,-30.75 88.71,-29.09 89.97,-35.98"/>
</a>
</g>
</g>
<!-- Node4 -->
<g id="Node000004" class="node">
<title>Node4</title>
<g id="a_Node000004"><a xlink:href="../../df/d27/alaw_8c.html#a093ac72124e3c2268d1150676e63175d" target="_top" xlink:title="8bit alaw to 16bit pcm">
<polygon fill="white" stroke="#666666" points="249.75,-56.25 202.25,-56.25 202.25,-37 249.75,-37 249.75,-56.25"/>
<text text-anchor="middle" x="226" y="-42.75" font-family="Helvetica,sans-Serif" font-size="10.00">decode</text>
</a>
</g>
</g>
<!-- Node3&#45;&gt;Node4 -->
<g id="edge3_Node000003_Node000004" class="edge">
<title>Node3&#45;&gt;Node4</title>
<g id="a_edge3_Node000003_Node000004"><a xlink:title=" ">
<path fill="none" stroke="#63b8ff" d="M134.11,-30.43C148.98,-33.08 171.79,-37.14 190.84,-40.54"/>
<polygon fill="#63b8ff" stroke="#63b8ff" points="190.16,-43.97 200.62,-42.28 191.38,-37.08 190.16,-43.97"/>
</a>
</g>
</g>
<!-- Node6 -->
<g id="Node000006" class="node">
<title>Node6</title>
<g id="a_Node000006"><a xlink:href="../../df/d27/alaw_8c.html#a751d8e2c1975706e4d876316518c54c4" target="_top" xlink:title="16bit pcm to 8bit alaw">
<polygon fill="white" stroke="#666666" points="249.75,-19.25 202.25,-19.25 202.25,0 249.75,0 249.75,-19.25"/>
<text text-anchor="middle" x="226" y="-5.75" font-family="Helvetica,sans-Serif" font-size="10.00">encode</text>
</a>
</g>
</g>
<!-- Node3&#45;&gt;Node6 -->
<g id="edge5_Node000003_Node000006" class="edge">
<title>Node3&#45;&gt;Node6</title>
<g id="a_edge5_Node000003_Node000006"><a xlink:title=" ">
<path fill="none" stroke="#63b8ff" d="M134.11,-24.97C148.98,-22.46 171.79,-18.61 190.84,-15.39"/>
<polygon fill="#63b8ff" stroke="#63b8ff" points="191.34,-18.86 200.61,-13.74 190.17,-11.96 191.34,-18.86"/>
</a>
</g>
</g>
<!-- Node5 -->
<g id="Node000005" class="node">
<title>Node5</title>
<g id="a_Node000005"><a xlink:href="../../da/d4a/bisection__method_8c.html#a858396a5abdb7865e71cf803fdcb37ae" target="_top" xlink:title="Function to check if two input values have the same sign (the property of being positive or negative)">
<polygon fill="white" stroke="#666666" points="319.75,-37.25 285.75,-37.25 285.75,-18 319.75,-18 319.75,-37.25"/>
<text text-anchor="middle" x="302.75" y="-23.75" font-family="Helvetica,sans-Serif" font-size="10.00">sign</text>
</a>
</g>
</g>
<!-- Node4&#45;&gt;Node5 -->
<g id="edge4_Node000004_Node000005" class="edge">
<title>Node4&#45;&gt;Node5</title>
<g id="a_edge4_Node000004_Node000005"><a xlink:title=" ">
<path fill="none" stroke="#63b8ff" d="M250.24,-40.72C257.96,-38.76 266.62,-36.55 274.6,-34.53"/>
<polygon fill="#63b8ff" stroke="#63b8ff" points="275.33,-37.95 284.16,-32.1 273.61,-31.17 275.33,-37.95"/>
</a>
</g>
</g>
<!-- Node6&#45;&gt;Node5 -->
<g id="edge6_Node000006_Node000005" class="edge">
<title>Node6&#45;&gt;Node5</title>
<g id="a_edge6_Node000006_Node000005"><a xlink:title=" ">
<path fill="none" stroke="#63b8ff" d="M250.24,-15.22C257.96,-17.08 266.62,-19.17 274.6,-21.09"/>
<polygon fill="#63b8ff" stroke="#63b8ff" points="273.62,-24.45 284.16,-23.39 275.26,-17.65 273.62,-24.45"/>
</a>
</g>
</g>
</g>
</svg>
