<?xml version="1.0" encoding="UTF-8" standalone="no"?>
<!DOCTYPE svg PUBLIC "-//W3C//DTD SVG 1.1//EN"
 "http://www.w3.org/Graphics/SVG/1.1/DTD/svg11.dtd">
<!-- Generated by graphviz version 12.2.1 (20241206.2353)
 -->
<!-- Title: main Pages: 1 -->
<svg width="401pt" height="82pt"
 viewBox="0.00 0.00 400.75 82.25" xmlns="http://www.w3.org/2000/svg" xmlns:xlink="http://www.w3.org/1999/xlink">

<svg id="main" version="1.1" xmlns="http://www.w3.org/2000/svg" xmlns:xlink="http://www.w3.org/1999/xlink" xml:space="preserve">

<style type="text/css"><![CDATA[
.node, .edge {opacity: 0.7;}
.node.selected, .edge.selected {opacity: 1;}
.edge:hover path { stroke: red; }
.edge:hover polygon { stroke: red; fill: red; }
]]></style>
<script type="application/ecmascript" xlink:href="../../svg.min.js"/>
<svg id="graph" class="graph">
<g id="graph0" class="graph" transform="scale(1 1) rotate(0) translate(4 78.25)">
<title>main</title>
<!-- Node1 -->
<g id="Node000001" class="node">
<title>Node1</title>
<g id="a_Node000001"><a xlink:title="Main function.">
<polygon fill="#999999" stroke="#666666" points="37,-55.25 0,-55.25 0,-36 37,-36 37,-55.25"/>
<text text-anchor="middle" x="18.5" y="-41.75" font-family="Helvetica,sans-Serif" font-size="10.00">main</text>
</a>
</g>
</g>
<!-- Node2 -->
<g id="Node000002" class="node">
<title>Node2</title>
<g id="a_Node000002"><a xlink:href="../../d1/dc7/run__length__encoding_8c.html#aa8dca7b867074164d5f45b0f3851269d" target="_top" xlink:title="Self&#45;test implementations.">
<polygon fill="white" stroke="#666666" points="105.5,-55.25 73,-55.25 73,-36 105.5,-36 105.5,-55.25"/>
<text text-anchor="middle" x="89.25" y="-41.75" font-family="Helvetica,sans-Serif" font-size="10.00">test</text>
</a>
</g>
</g>
<!-- Node1&#45;&gt;Node2 -->
<g id="edge1_Node000001_Node000002" class="edge">
<title>Node1&#45;&gt;Node2</title>
<g id="a_edge1_Node000001_Node000002"><a xlink:title=" ">
<path fill="none" stroke="#63b8ff" d="M37.2,-45.62C44.58,-45.62 53.31,-45.62 61.45,-45.62"/>
<polygon fill="#63b8ff" stroke="#63b8ff" points="61.2,-49.13 71.2,-45.63 61.2,-42.13 61.2,-49.13"/>
</a>
</g>
</g>
<!-- Node3 -->
<g id="Node000003" class="node">
<title>Node3</title>
<g id="a_Node000003"><a xlink:href="../../d1/dc7/run__length__encoding_8c.html#ac3cc4a63cf2a14a08e05c5537ecf59c2" target="_top" xlink:title="for IO operations">
<polygon fill="white" stroke="#666666" points="239.25,-74.25 141.5,-74.25 141.5,-55 239.25,-55 239.25,-74.25"/>
<text text-anchor="middle" x="190.38" y="-60.75" font-family="Helvetica,sans-Serif" font-size="10.00">run_length_encode</text>
</a>
</g>
</g>
<!-- Node2&#45;&gt;Node3 -->
<g id="edge2_Node000002_Node000003" class="edge">
<title>Node2&#45;&gt;Node3</title>
<g id="a_edge2_Node000002_Node000003"><a xlink:title=" ">
<path fill="none" stroke="#63b8ff" d="M105.74,-48.59C112.63,-49.91 121.22,-51.56 130.26,-53.29"/>
<polygon fill="#63b8ff" stroke="#63b8ff" points="129.44,-56.7 139.92,-55.15 130.76,-49.83 129.44,-56.7"/>
</a>
</g>
</g>
<!-- Node4 -->
<g id="Node000004" class="node">
<title>Node4</title>
<g id="a_Node000004"><a xlink:href="../../df/d27/alaw_8c.html#a840bf13d2e4d75d38fb7bf3a655152f5" target="_top" xlink:title="Self&#45;test implementations.">
<polygon fill="white" stroke="#666666" points="206.62,-37.25 174.12,-37.25 174.12,-18 206.62,-18 206.62,-37.25"/>
<text text-anchor="middle" x="190.38" y="-23.75" font-family="Helvetica,sans-Serif" font-size="10.00">test</text>
</a>
</g>
</g>
<!-- Node2&#45;&gt;Node4 -->
<g id="edge3_Node000002_Node000004" class="edge">
<title>Node2&#45;&gt;Node4</title>
<g id="a_edge3_Node000002_Node000004"><a xlink:title=" ">
<path fill="none" stroke="#63b8ff" d="M105.74,-42.81C120.93,-40.05 144.38,-35.79 162.6,-32.49"/>
<polygon fill="#63b8ff" stroke="#63b8ff" points="162.97,-35.98 172.18,-30.75 161.71,-29.09 162.97,-35.98"/>
</a>
</g>
</g>
<!-- Node5 -->
<g id="Node000005" class="node">
<title>Node5</title>
<g id="a_Node000005"><a xlink:href="../../df/d27/alaw_8c.html#a093ac72124e3c2268d1150676e63175d" target="_top" xlink:title="8bit alaw to 16bit pcm">
<polygon fill="white" stroke="#666666" points="322.75,-56.25 275.25,-56.25 275.25,-37 322.75,-37 322.75,-56.25"/>
<text text-anchor="middle" x="299" y="-42.75" font-family="Helvetica,sans-Serif" font-size="10.00">decode</text>
</a>
</g>
</g>
<!-- Node4&#45;&gt;Node5 -->
<g id="edge4_Node000004_Node000005" class="edge">
<title>Node4&#45;&gt;Node5</title>
<g id="a_edge4_Node000004_Node000005"><a xlink:title=" ">
<path fill="none" stroke="#63b8ff" d="M207.11,-30.43C221.98,-33.08 244.79,-37.14 263.84,-40.54"/>
<polygon fill="#63b8ff" stroke="#63b8ff" points="263.16,-43.97 273.62,-42.28 264.38,-37.08 263.16,-43.97"/>
</a>
</g>
</g>
<!-- Node7 -->
<g id="Node000007" class="node">
<title>Node7</title>
<g id="a_Node000007"><a xlink:href="../../df/d27/alaw_8c.html#a751d8e2c1975706e4d876316518c54c4" target="_top" xlink:title="16bit pcm to 8bit alaw">
<polygon fill="white" stroke="#666666" points="322.75,-19.25 275.25,-19.25 275.25,0 322.75,0 322.75,-19.25"/>
<text text-anchor="middle" x="299" y="-5.75" font-family="Helvetica,sans-Serif" font-size="10.00">encode</text>
</a>
</g>
</g>
<!-- Node4&#45;&gt;Node7 -->
<g id="edge6_Node000004_Node000007" class="edge">
<title>Node4&#45;&gt;Node7</title>
<g id="a_edge6_Node000004_Node000007"><a xlink:title=" ">
<path fill="none" stroke="#63b8ff" d="M207.11,-24.97C221.98,-22.46 244.79,-18.61 263.84,-15.39"/>
<polygon fill="#63b8ff" stroke="#63b8ff" points="264.34,-18.86 273.61,-13.74 263.17,-11.96 264.34,-18.86"/>
</a>
</g>
</g>
<!-- Node6 -->
<g id="Node000006" class="node">
<title>Node6</title>
<g id="a_Node000006"><a xlink:href="../../da/d4a/bisection__method_8c.html#a858396a5abdb7865e71cf803fdcb37ae" target="_top" xlink:title="Function to check if two input values have the same sign (the property of being positive or negative)">
<polygon fill="white" stroke="#666666" points="392.75,-37.25 358.75,-37.25 358.75,-18 392.75,-18 392.75,-37.25"/>
<text text-anchor="middle" x="375.75" y="-23.75" font-family="Helvetica,sans-Serif" font-size="10.00">sign</text>
</a>
</g>
</g>
<!-- Node5&#45;&gt;Node6 -->
<g id="edge5_Node000005_Node000006" class="edge">
<title>Node5&#45;&gt;Node6</title>
<g id="a_edge5_Node000005_Node000006"><a xlink:title=" ">
<path fill="none" stroke="#63b8ff" d="M323.24,-40.72C330.96,-38.76 339.62,-36.55 347.6,-34.53"/>
<polygon fill="#63b8ff" stroke="#63b8ff" points="348.33,-37.95 357.16,-32.1 346.61,-31.17 348.33,-37.95"/>
</a>
</g>
</g>
<!-- Node7&#45;&gt;Node6 -->
<g id="edge7_Node000007_Node000006" class="edge">
<title>Node7&#45;&gt;Node6</title>
<g id="a_edge7_Node000007_Node000006"><a xlink:title=" ">
<path fill="none" stroke="#63b8ff" d="M323.24,-15.22C330.96,-17.08 339.62,-19.17 347.6,-21.09"/>
<polygon fill="#63b8ff" stroke="#63b8ff" points="346.62,-24.45 357.16,-23.39 348.26,-17.65 346.62,-24.45"/>
</a>
</g>
</g>
</g>
</svg>
</svg>

<style type='text/css'>
<![CDATA[
[data-mouse-over-selected='false'] { opacity: 0.7; }
[data-mouse-over-selected='true']  { opacity: 1.0; }
]]>
</style>
<script type="application/ecmascript"><![CDATA[
document.addEventListener('DOMContentLoaded', (event) => {
  highlightEdges();
  highlightAdjacentNodes();
});
]]></script>
</svg>
